<svg width="512" height="512" version="1.1" xmlns="http://www.w3.org/2000/svg" desc="Created with imagetracer.js version 1.2.6" ><path fill="rgb(91,157,218)" stroke="rgb(91,157,218)" stroke-width="1" opacity="1" d="M 172.5 60 L 188 60.5 L 172.5 61 L 172.5 60 Z " /><path fill="rgb(91,157,218)" stroke="rgb(91,157,218)" stroke-width="1" opacity="1" d="M 360.5 60 L 376 60.5 L 360.5 61 L 360.5 60 Z " /><path fill="rgb(91,157,218)" stroke="rgb(91,157,218)" stroke-width="1" opacity="1" d="M 162.5 61 L 165 61.5 L 162.5 62 L 162.5 61 Z " /><path fill="rgb(91,157,218)" stroke="rgb(91,157,218)" stroke-width="1" opacity="1" d="M 195.5 61 L 198 61.5 L 195.5 62 L 195.5 61 Z " /><path fill="rgb(91,157,218)" stroke="rgb(91,157,218)" stroke-width="1" opacity="1" d="M 350.5 61 L 353 61.5 L 350.5 62 L 350.5 61 Z " /><path fill="rgb(91,157,218)" stroke="rgb(91,157,218)" stroke-width="1" opacity="1" d="M 383.5 61 L 386 61.5 L 383.5 62 L 383.5 61 Z " /><path fill="rgb(91,157,218)" stroke="rgb(91,157,218)" stroke-width="1" opacity="1" d="M 247.5 79 L 248.5 81 L 247.5 79 Z " /><path fill="rgb(91,157,218)" stroke="rgb(91,157,218)" stroke-width="1" opacity="1" d="M 250.5 81 L 251.5 83 L 250.5 81 Z " /><path fill="rgb(91,157,218)" stroke="rgb(91,157,218)" stroke-width="1" opacity="1" d="M 253.5 83 L 254.5 85 L 253.5 83 Z " /><path fill="rgb(91,157,218)" stroke="rgb(91,157,218)" stroke-width="1" opacity="1" d="M 441.5 83 L 442.5 85 L 441.5 83 Z " /><path fill="rgb(91,157,218)" stroke="rgb(91,157,218)" stroke-width="1" opacity="1" d="M 103.5 85 L 102.5 87 L 103.5 85 Z " /><path fill="rgb(91,157,218)" stroke="rgb(91,157,218)" stroke-width="1" opacity="1" d="M 257.5 86 L 258.5 88 L 257.5 86 Z " /><path fill="rgb(91,157,218)" stroke="rgb(91,157,218)" stroke-width="1" opacity="1" d="M 445.5 86 L 446.5 88 L 445.5 86 Z " /><path fill="rgb(91,157,218)" stroke="rgb(91,157,218)" stroke-width="1" opacity="1" d="M 99.5 88 L 97.5 91 L 99.5 88 Z " /><path fill="rgb(91,157,218)" stroke="rgb(91,157,218)" stroke-width="1" opacity="1" d="M 286.5 89 L 284.5 92 L 286.5 89 Z " /><path fill="rgb(91,157,218)" stroke="rgb(91,157,218)" stroke-width="1" opacity="1" d="M 449.5 89 L 451.5 92 L 449.5 89 Z " /><path fill="rgb(91,157,218)" stroke="rgb(91,157,218)" stroke-width="1" opacity="1" d="M 262.5 90 L 264.5 93 L 262.5 90 Z " /><path fill="rgb(91,157,218)" stroke="rgb(91,157,218)" stroke-width="1" opacity="1" d="M 89.5 97 L 88.5 99 L 89.5 97 Z " /><path fill="rgb(91,157,218)" stroke="rgb(91,157,218)" stroke-width="1" opacity="1" d="M 464.5 104 L 466.5 107 L 464.5 104 Z " /><path fill="rgb(91,157,218)" stroke="rgb(91,157,218)" stroke-width="1" opacity="1" d="M 82.5 105 L 80.5 108 L 82.5 105 Z " /><path fill="rgb(91,157,218)" stroke="rgb(91,157,218)" stroke-width="1" opacity="1" d="M 469.5 110 L 470.5 112 L 469.5 110 Z " /><path fill="rgb(91,157,218)" stroke="rgb(91,157,218)" stroke-width="1" opacity="1" d="M 75.5 114 L 74.5 116 L 75.5 114 Z " /><path fill="rgb(91,157,218)" stroke="rgb(91,157,218)" stroke-width="1" opacity="1" d="M 197.5 166 L 201 166.5 L 197.5 167 L 197.5 166 Z " /><path fill="rgb(91,157,218)" stroke="rgb(91,157,218)" stroke-width="1" opacity="1" d="M 208.5 166 L 212 166.5 L 208.5 167 L 208.5 166 Z " /><path fill="rgb(91,157,218)" stroke="rgb(91,157,218)" stroke-width="1" opacity="1" d="M 494.5 168 L 495 170.5 L 494 170.5 L 494.5 168 Z " /><path fill="rgb(91,157,218)" stroke="rgb(91,157,218)" stroke-width="1" opacity="1" d="M 52.5 175 L 53 179.5 L 52 179.5 L 52.5 175 Z " /><path fill="rgb(91,157,218)" stroke="rgb(91,157,218)" stroke-width="1" opacity="1" d="M 171.5 176 L 169.5 179 L 171.5 176 Z " /><path fill="rgb(91,157,218)" stroke="rgb(91,157,218)" stroke-width="1" opacity="1" d="M 495.5 176 L 496 180.5 L 495 180.5 L 495.5 176 Z " /><path fill="rgb(91,157,218)" stroke="rgb(91,157,218)" stroke-width="1" opacity="1" d="M 239.5 177 L 240.5 179 L 239.5 177 Z " /><path fill="rgb(91,157,218)" stroke="rgb(91,157,218)" stroke-width="1" opacity="1" d="M 245.5 182 L 247.5 185 L 245.5 182 Z " /><path fill="rgb(91,157,218)" stroke="rgb(91,157,218)" stroke-width="1" opacity="1" d="M 178.5 183 L 177.5 185 L 178.5 183 Z " /><path fill="rgb(91,157,218)" stroke="rgb(91,157,218)" stroke-width="1" opacity="1" d="M 162.5 185 L 160.5 188 L 162.5 185 Z " /><path fill="rgb(91,157,218)" stroke="rgb(91,157,218)" stroke-width="1" opacity="1" d="M 233.5 185 L 234.5 187 L 233.5 185 Z " /><path fill="rgb(91,157,218)" stroke="rgb(91,157,218)" stroke-width="1" opacity="1" d="M 251.5 189 L 252.5 191 L 251.5 189 Z " /><path fill="rgb(91,157,218)" stroke="rgb(91,157,218)" stroke-width="1" opacity="1" d="M 157.5 191 L 156.5 193 L 157.5 191 Z " /><path fill="rgb(91,157,218)" stroke="rgb(91,157,218)" stroke-width="1" opacity="1" d="M 168.5 193 L 167.5 195 L 168.5 193 Z " /><path fill="rgb(91,157,218)" stroke="rgb(91,157,218)" stroke-width="1" opacity="1" d="M 243.5 195 L 244.5 197 L 243.5 195 Z " /><path fill="rgb(91,157,218)" stroke="rgb(91,157,218)" stroke-width="1" opacity="1" d="M 495.5 195 L 496 199.5 L 495 199.5 L 495.5 195 Z " /><path fill="rgb(91,157,218)" stroke="rgb(91,157,218)" stroke-width="1" opacity="1" d="M 52.5 196 L 53 200.5 L 52 200.5 L 52.5 196 Z " /><path fill="rgb(91,157,218)" stroke="rgb(91,157,218)" stroke-width="1" opacity="1" d="M 152.5 198 L 151.5 200 L 152.5 198 Z " /><path fill="rgb(91,157,218)" stroke="rgb(91,157,218)" stroke-width="1" opacity="1" d="M 164.5 198 L 163.5 200 L 164.5 198 Z " /><path fill="rgb(91,157,218)" stroke="rgb(91,157,218)" stroke-width="1" opacity="1" d="M 245.5 198 L 246.5 200 L 245.5 198 Z " /><path fill="rgb(91,157,218)" stroke="rgb(91,157,218)" stroke-width="1" opacity="1" d="M 148.5 204 L 147.5 206 L 148.5 204 Z " /><path fill="rgb(91,157,218)" stroke="rgb(91,157,218)" stroke-width="1" opacity="1" d="M 53.5 206 L 54 208.5 L 53 208.5 L 53.5 206 Z " /><path fill="rgb(91,157,218)" stroke="rgb(91,157,218)" stroke-width="1" opacity="1" d="M 200.5 210 L 203 210.5 L 200.5 211 L 200.5 210 Z " /><path fill="rgb(91,157,218)" stroke="rgb(91,157,218)" stroke-width="1" opacity="1" d="M 211.5 210 L 214 210.5 L 211.5 211 L 211.5 210 Z " /><path fill="rgb(91,157,218)" stroke="rgb(91,157,218)" stroke-width="1" opacity="1" d="M 228.5 216 L 229.5 218 L 228.5 216 Z " /><path fill="rgb(91,157,218)" stroke="rgb(91,157,218)" stroke-width="1" opacity="1" d="M 253.5 217 L 254 219.5 L 253 219.5 L 253.5 217 Z " /><path fill="rgb(91,157,218)" stroke="rgb(91,157,218)" stroke-width="1" opacity="1" d="M 232.5 219 L 235.5 223 L 232.5 219 Z " /><path fill="rgb(91,157,218)" stroke="rgb(91,157,218)" stroke-width="1" opacity="1" d="M 263.5 219 L 264 229.5 L 263 229.5 L 263.5 219 Z " /><path fill="rgb(91,157,218)" stroke="rgb(91,157,218)" stroke-width="1" opacity="1" d="M 179.5 220 L 178.5 222 L 179.5 220 Z " /><path fill="rgb(91,157,218)" stroke="rgb(91,157,218)" stroke-width="1" opacity="1" d="M 176.5 222 L 175.5 224 L 176.5 222 Z " /><path fill="rgb(91,157,218)" stroke="rgb(91,157,218)" stroke-width="1" opacity="1" d="M 173.5 224 L 172.5 226 L 173.5 224 Z " /><path fill="rgb(91,157,218)" stroke="rgb(91,157,218)" stroke-width="1" opacity="1" d="M 237.5 225 L 238.5 227 L 237.5 225 Z " /><path fill="rgb(91,157,218)" stroke="rgb(91,157,218)" stroke-width="1" opacity="1" d="M 135.5 226 L 134.5 228 L 135.5 226 Z " /><path fill="rgb(91,157,218)" stroke="rgb(91,157,218)" stroke-width="1" opacity="1" d="M 225.5 226 L 228.5 230 L 225.5 226 Z " /><path fill="rgb(91,157,218)" stroke="rgb(91,157,218)" stroke-width="1" opacity="1" d="M 239.5 228 L 240.5 230 L 239.5 228 Z " /><path fill="rgb(91,157,218)" stroke="rgb(91,157,218)" stroke-width="1" opacity="1" d="M 166.5 229 L 165.5 231 L 166.5 229 Z " /><path fill="rgb(91,157,218)" stroke="rgb(91,157,218)" stroke-width="1" opacity="1" d="M 269.5 230 L 272 230.5 L 269.5 231 L 269.5 230 Z " /><path fill="rgb(91,157,218)" stroke="rgb(91,157,218)" stroke-width="1" opacity="1" d="M 163.5 231 L 162.5 233 L 163.5 231 Z " /><path fill="rgb(91,157,218)" stroke="rgb(91,157,218)" stroke-width="1" opacity="1" d="M 253.5 231 L 254 233.5 L 253 233.5 L 253.5 231 Z " /><path fill="rgb(91,157,218)" stroke="rgb(91,157,218)" stroke-width="1" opacity="1" d="M 278.5 231 L 283 231.5 L 278.5 232 L 278.5 231 Z " /><path fill="rgb(91,157,218)" stroke="rgb(91,157,218)" stroke-width="1" opacity="1" d="M 289.5 232 L 294 232.5 L 289.5 233 L 289.5 232 Z " /><path fill="rgb(91,157,218)" stroke="rgb(91,157,218)" stroke-width="1" opacity="1" d="M 302.5 233 L 307 233.5 L 302.5 234 L 302.5 233 Z " /><path fill="rgb(91,157,218)" stroke="rgb(91,157,218)" stroke-width="1" opacity="1" d="M 483.5 233 L 488 233.5 L 483.5 234 L 483.5 233 Z " /><path fill="rgb(91,157,218)" stroke="rgb(91,157,218)" stroke-width="1" opacity="1" d="M 116.5 234 L 115.5 236 L 116.5 234 Z " /><path fill="rgb(91,157,218)" stroke="rgb(91,157,218)" stroke-width="1" opacity="1" d="M 176.5 234 L 175.5 236 L 176.5 234 Z " /><path fill="rgb(91,157,218)" stroke="rgb(91,157,218)" stroke-width="1" opacity="1" d="M 316.5 234 L 322 234.5 L 316.5 235 L 316.5 234 Z " /><path fill="rgb(91,157,218)" stroke="rgb(91,157,218)" stroke-width="1" opacity="1" d="M 468.5 234 L 475 234.5 L 468.5 235 L 468.5 234 Z " /><path fill="rgb(91,157,218)" stroke="rgb(91,157,218)" stroke-width="1" opacity="1" d="M 332.5 235 L 341 235.5 L 332.5 236 L 332.5 235 Z " /><path fill="rgb(91,157,218)" stroke="rgb(91,157,218)" stroke-width="1" opacity="1" d="M 449.5 235 L 458 235.5 L 449.5 236 L 449.5 235 Z " /><path fill="rgb(91,157,218)" stroke="rgb(91,157,218)" stroke-width="1" opacity="1" d="M 357.5 236 L 372 236.5 L 357.5 237 L 357.5 236 Z " /><path fill="rgb(91,157,218)" stroke="rgb(91,157,218)" stroke-width="1" opacity="1" d="M 418.5 236 L 434 236.5 L 418.5 237 L 418.5 236 Z " /><path fill="rgb(91,157,218)" stroke="rgb(91,157,218)" stroke-width="1" opacity="1" d="M 112.5 237 L 107.5 243 L 104 242.5 Q 110.9 242.4 112.5 237 Z " /><path fill="rgb(91,157,218)" stroke="rgb(91,157,218)" stroke-width="1" opacity="1" d="M 134.5 237 L 137 237.5 L 134.5 238 L 134.5 237 Z " /><path fill="rgb(91,157,218)" stroke="rgb(91,157,218)" stroke-width="1" opacity="1" d="M 169.5 239 L 168.5 241 L 169.5 239 Z " /><path fill="rgb(91,157,218)" stroke="rgb(91,157,218)" stroke-width="1" opacity="1" d="M 262.5 239 L 264 239.5 L 261.5 241 L 262.5 239 Z " /><path fill="rgb(91,157,218)" stroke="rgb(91,157,218)" stroke-width="1" opacity="1" d="M 66.5 240 L 82 240.5 L 66.5 241 L 66.5 240 Z " /><path fill="rgb(91,157,218)" stroke="rgb(91,157,218)" stroke-width="1" opacity="1" d="M 154.5 240 L 155.5 242 L 154.5 240 Z " /><path fill="rgb(91,157,218)" stroke="rgb(91,157,218)" stroke-width="1" opacity="1" d="M 244.5 240 L 245 242.5 L 244 242.5 L 244.5 240 Z " /><path fill="rgb(91,157,218)" stroke="rgb(91,157,218)" stroke-width="1" opacity="1" d="M 269.5 240 L 273 240.5 L 269.5 241 L 269.5 240 Z " /><path fill="rgb(91,157,218)" stroke="rgb(91,157,218)" stroke-width="1" opacity="1" d="M 93.5 241 L 98 241.5 L 93.5 242 L 93.5 241 Z " /><path fill="rgb(91,157,218)" stroke="rgb(91,157,218)" stroke-width="1" opacity="1" d="M 279.5 241 L 284 241.5 L 279.5 242 L 279.5 241 Z " /><path fill="rgb(91,157,218)" stroke="rgb(91,157,218)" stroke-width="1" opacity="1" d="M 290.5 242 L 295 242.5 L 290.5 243 L 290.5 242 Z " /><path fill="rgb(91,157,218)" stroke="rgb(91,157,218)" stroke-width="1" opacity="1" d="M 302.5 243 L 308 243.5 L 302.5 244 L 302.5 243 Z " /><path fill="rgb(91,157,218)" stroke="rgb(91,157,218)" stroke-width="1" opacity="1" d="M 119.5 244 L 118.5 246 L 119.5 244 Z " /><path fill="rgb(91,157,218)" stroke="rgb(91,157,218)" stroke-width="1" opacity="1" d="M 317.5 244 L 324 244.5 L 317.5 245 L 317.5 244 Z " /><path fill="rgb(91,157,218)" stroke="rgb(91,157,218)" stroke-width="1" opacity="1" d="M 466.5 244 L 473 244.5 L 466.5 245 L 466.5 244 Z " /><path fill="rgb(91,157,218)" stroke="rgb(91,157,218)" stroke-width="1" opacity="1" d="M 334.5 245 L 343 245.5 L 334.5 246 L 334.5 245 Z " /><path fill="rgb(91,157,218)" stroke="rgb(91,157,218)" stroke-width="1" opacity="1" d="M 447.5 245 L 456 245.5 L 447.5 246 L 447.5 245 Z " /><path fill="rgb(91,157,218)" stroke="rgb(91,157,218)" stroke-width="1" opacity="1" d="M 160.5 246 L 161.5 248 L 160.5 246 Z " /><path fill="rgb(91,157,218)" stroke="rgb(91,157,218)" stroke-width="1" opacity="1" d="M 360.5 246 L 380 246.5 L 360.5 247 L 360.5 246 Z " /><path fill="rgb(91,157,218)" stroke="rgb(91,157,218)" stroke-width="1" opacity="1" d="M 411.5 246 L 431 246.5 L 411.5 247 L 411.5 246 Z " /><path fill="rgb(91,157,218)" stroke="rgb(91,157,218)" stroke-width="1" opacity="1" d="M 114.5 249 L 112.5 252 L 114.5 249 Z " /><path fill="rgb(91,157,218)" stroke="rgb(91,157,218)" stroke-width="1" opacity="1" d="M 62.5 250 L 86 250.5 L 62.5 251 L 62.5 250 Z " /><path fill="rgb(91,157,218)" stroke="rgb(91,157,218)" stroke-width="1" opacity="1" d="M 94.5 251 L 99 251.5 L 94.5 252 L 94.5 251 Z " /><path fill="rgb(91,157,218)" stroke="rgb(91,157,218)" stroke-width="1" opacity="1" d="M 163.5 253 L 164 260.5 L 163 260.5 L 163.5 253 Z " /><path fill="rgb(91,157,218)" stroke="rgb(91,157,218)" stroke-width="1" opacity="1" d="M 173.5 253 L 174 260.5 L 173 260.5 L 173.5 253 Z " /><path fill="rgb(91,157,218)" stroke="rgb(91,157,218)" stroke-width="1" opacity="1" d="M 36.5 258 L 35.5 260 L 36.5 258 Z " /><path fill="rgb(91,157,218)" stroke="rgb(91,157,218)" stroke-width="1" opacity="1" d="M 98.5 259 L 99 261.5 L 98 261.5 L 98.5 259 Z " /><path fill="rgb(91,157,218)" stroke="rgb(91,157,218)" stroke-width="1" opacity="1" d="M 30.5 263 L 29.5 265 L 30.5 263 Z " /><path fill="rgb(91,157,218)" stroke="rgb(91,157,218)" stroke-width="1" opacity="1" d="M 107.5 263 L 108 269.5 L 107 269.5 L 107.5 263 Z " /><path fill="rgb(91,157,218)" stroke="rgb(91,157,218)" stroke-width="1" opacity="1" d="M 230.5 263 L 229.5 265 L 230.5 263 Z " /><path fill="rgb(91,157,218)" stroke="rgb(91,157,218)" stroke-width="1" opacity="1" d="M 249.5 263 L 241.5 272 L 249.5 263 Z " /><path fill="rgb(91,157,218)" stroke="rgb(91,157,218)" stroke-width="1" opacity="1" d="M 469.5 266 L 468.5 268 L 469.5 266 Z " /><path fill="rgb(91,157,218)" stroke="rgb(91,157,218)" stroke-width="1" opacity="1" d="M 159.5 270 L 158.5 272 L 159.5 270 Z " /><path fill="rgb(91,157,218)" stroke="rgb(91,157,218)" stroke-width="1" opacity="1" d="M 466.5 270 L 463.5 274 L 466.5 270 Z " /><path fill="rgb(91,157,218)" stroke="rgb(91,157,218)" stroke-width="1" opacity="1" d="M 173.5 272 L 177 272.5 L 173.5 273 L 173.5 272 Z " /><path fill="rgb(91,157,218)" stroke="rgb(91,157,218)" stroke-width="1" opacity="1" d="M 212.5 272 L 215 272.5 L 212.5 273 L 212.5 272 Z " /><path fill="rgb(91,157,218)" stroke="rgb(91,157,218)" stroke-width="1" opacity="1" d="M 187.5 273 L 205 273.5 L 187.5 274 L 187.5 273 Z " /><path fill="rgb(91,157,218)" stroke="rgb(91,157,218)" stroke-width="1" opacity="1" d="M 156.5 274 L 153.5 278 L 156.5 274 Z " /><path fill="rgb(91,157,218)" stroke="rgb(91,157,218)" stroke-width="1" opacity="1" d="M 112.5 279 L 113.5 281 L 112.5 279 Z " /><path fill="rgb(91,157,218)" stroke="rgb(91,157,218)" stroke-width="1" opacity="1" d="M 150.5 279 L 149.5 281 L 150.5 279 Z " /><path fill="rgb(91,157,218)" stroke="rgb(91,157,218)" stroke-width="1" opacity="1" d="M 164 281 L 167 281.5 L 164.5 283 L 164 281 Z " /><path fill="rgb(91,157,218)" stroke="rgb(91,157,218)" stroke-width="1" opacity="1" d="M 172.5 282 L 177 282.5 L 172.5 283 L 172.5 282 Z " /><path fill="rgb(91,157,218)" stroke="rgb(91,157,218)" stroke-width="1" opacity="1" d="M 59.5 283 L 58.5 285 L 59.5 283 Z " /><path fill="rgb(91,157,218)" stroke="rgb(91,157,218)" stroke-width="1" opacity="1" d="M 183.5 283 L 189 283.5 L 183.5 284 L 183.5 283 Z " /><path fill="rgb(91,157,218)" stroke="rgb(91,157,218)" stroke-width="1" opacity="1" d="M 215.5 283 L 218 283.5 L 215.5 284 L 215.5 283 Z " /><path fill="rgb(91,157,218)" stroke="rgb(91,157,218)" stroke-width="1" opacity="1" d="M 167.5 284 L 168.5 286 L 167.5 284 Z " /><path fill="rgb(91,157,218)" stroke="rgb(91,157,218)" stroke-width="1" opacity="1" d="M 223.5 286 L 224.5 288 L 223.5 286 Z " /><path fill="rgb(91,157,218)" stroke="rgb(91,157,218)" stroke-width="1" opacity="1" d="M 109.5 289 L 110.5 291 L 109.5 289 Z " /><path fill="rgb(91,157,218)" stroke="rgb(91,157,218)" stroke-width="1" opacity="1" d="M 173.5 289 L 177.5 294 L 173.5 289 Z " /><path fill="rgb(91,157,218)" stroke="rgb(91,157,218)" stroke-width="1" opacity="1" d="M 225.5 289 L 226.5 291 L 225.5 289 Z " /><path fill="rgb(91,157,218)" stroke="rgb(91,157,218)" stroke-width="1" opacity="1" d="M 52.5 290 L 51.5 292 L 52.5 290 Z " /><path fill="rgb(91,157,218)" stroke="rgb(91,157,218)" stroke-width="1" opacity="1" d="M 66.5 290 L 65.5 292 L 66.5 290 Z " /><path fill="rgb(91,157,218)" stroke="rgb(91,157,218)" stroke-width="1" opacity="1" d="M 160.5 291 L 161.5 293 L 160.5 291 Z " /><path fill="rgb(91,157,218)" stroke="rgb(91,157,218)" stroke-width="1" opacity="1" d="M 445.5 291 L 438.5 299 L 445.5 291 Z " /><path fill="rgb(91,157,218)" stroke="rgb(91,157,218)" stroke-width="1" opacity="1" d="M 50.5 293 L 49.5 295 L 50.5 293 Z " /><path fill="rgb(91,157,218)" stroke="rgb(91,157,218)" stroke-width="1" opacity="1" d="M 135.5 295 Q 138.8 296.8 137 303.5 L 136 303.5 L 135.5 296 L 134 296.5 L 135.5 295 Z " /><path fill="rgb(91,157,218)" stroke="rgb(91,157,218)" stroke-width="1" opacity="1" d="M 165.5 295 L 170.5 301 L 165.5 295 Z " /><path fill="rgb(91,157,218)" stroke="rgb(91,157,218)" stroke-width="1" opacity="1" d="M 181.5 298 L 182.5 300 L 181.5 298 Z " /><path fill="rgb(91,157,218)" stroke="rgb(91,157,218)" stroke-width="1" opacity="1" d="M 249.5 300 L 256 300.5 L 249.5 301 L 249.5 300 Z " /><path fill="rgb(91,157,218)" stroke="rgb(91,157,218)" stroke-width="1" opacity="1" d="M 146.5 301 L 147 304.5 L 146 304.5 L 146.5 301 Z " /><path fill="rgb(91,157,218)" stroke="rgb(91,157,218)" stroke-width="1" opacity="1" d="M 265.5 301 L 273 301.5 L 265.5 302 L 265.5 301 Z " /><path fill="rgb(91,157,218)" stroke="rgb(91,157,218)" stroke-width="1" opacity="1" d="M 184.5 302 L 185.5 304 L 184.5 302 Z " /><path fill="rgb(91,157,218)" stroke="rgb(91,157,218)" stroke-width="1" opacity="1" d="M 284.5 302 L 294 302.5 L 284.5 303 L 284.5 302 Z " /><path fill="rgb(91,157,218)" stroke="rgb(91,157,218)" stroke-width="1" opacity="1" d="M 418.5 302 L 428 302.5 L 418.5 303 L 418.5 302 Z " /><path fill="rgb(91,157,218)" stroke="rgb(91,157,218)" stroke-width="1" opacity="1" d="M 311.5 303 L 330 303.5 L 311.5 304 L 311.5 303 Z " /><path fill="rgb(91,157,218)" stroke="rgb(91,157,218)" stroke-width="1" opacity="1" d="M 384.5 303 L 401 303.5 L 384.5 304 L 384.5 303 Z " /><path fill="rgb(91,157,218)" stroke="rgb(91,157,218)" stroke-width="1" opacity="1" d="M 16.5 305 L 17 307.5 L 16 307.5 L 16.5 305 Z " /><path fill="rgb(91,157,218)" stroke="rgb(91,157,218)" stroke-width="1" opacity="1" d="M 174.5 305 L 175.5 307 L 174.5 305 Z " /><path fill="rgb(91,157,218)" stroke="rgb(91,157,218)" stroke-width="1" opacity="1" d="M 44.5 309 L 45 317.5 L 44 317.5 L 44.5 309 Z " /><path fill="rgb(91,157,218)" stroke="rgb(91,157,218)" stroke-width="1" opacity="1" d="M 54.5 309 L 55 312.5 L 54 312.5 L 54.5 309 Z " /><path fill="rgb(91,157,218)" stroke="rgb(91,157,218)" stroke-width="1" opacity="1" d="M 212.5 309 L 211.5 311 L 212.5 309 Z " /><path fill="rgb(91,157,218)" stroke="rgb(91,157,218)" stroke-width="1" opacity="1" d="M 217.5 309 L 218.5 311 L 217.5 309 Z " /><path fill="rgb(91,157,218)" stroke="rgb(91,157,218)" stroke-width="1" opacity="1" d="M 252.5 310 L 258 310.5 L 252.5 311 L 252.5 310 Z " /><path fill="rgb(91,157,218)" stroke="rgb(91,157,218)" stroke-width="1" opacity="1" d="M 220.5 311 L 221.5 313 L 220.5 311 Z " /><path fill="rgb(91,157,218)" stroke="rgb(91,157,218)" stroke-width="1" opacity="1" d="M 268.5 311 L 275 311.5 L 268.5 312 L 268.5 311 Z " /><path fill="rgb(91,157,218)" stroke="rgb(91,157,218)" stroke-width="1" opacity="1" d="M 287.5 312 L 297 312.5 L 287.5 313 L 287.5 312 Z " /><path fill="rgb(91,157,218)" stroke="rgb(91,157,218)" stroke-width="1" opacity="1" d="M 414.5 312 L 425 312.5 L 414.5 313 L 414.5 312 Z " /><path fill="rgb(91,157,218)" stroke="rgb(91,157,218)" stroke-width="1" opacity="1" d="M 113.5 313 L 112.5 315 L 113.5 313 Z " /><path fill="rgb(91,157,218)" stroke="rgb(91,157,218)" stroke-width="1" opacity="1" d="M 313.5 313 L 332 313.5 L 313.5 314 L 313.5 313 Z " /><path fill="rgb(91,157,218)" stroke="rgb(91,157,218)" stroke-width="1" opacity="1" d="M 380.5 313 L 396 313.5 L 380.5 314 L 380.5 313 Z " /><path fill="rgb(91,157,218)" stroke="rgb(91,157,218)" stroke-width="1" opacity="1" d="M 54.5 315 L 55 318.5 L 54 318.5 L 54.5 315 Z " /><path fill="rgb(91,157,218)" stroke="rgb(91,157,218)" stroke-width="1" opacity="1" d="M 228.5 317 L 230.5 320 L 228.5 317 Z " /><path fill="rgb(91,157,218)" stroke="rgb(91,157,218)" stroke-width="1" opacity="1" d="M 109.5 319 L 108.5 321 L 109.5 319 Z " /><path fill="rgb(91,157,218)" stroke="rgb(91,157,218)" stroke-width="1" opacity="1" d="M 218.5 322 L 217.5 324 L 218.5 322 Z " /><path fill="rgb(91,157,218)" stroke="rgb(91,157,218)" stroke-width="1" opacity="1" d="M 119.5 323 L 118.5 325 L 119.5 323 Z " /><path fill="rgb(91,157,218)" stroke="rgb(91,157,218)" stroke-width="1" opacity="1" d="M 221.5 324 L 223.5 327 L 221.5 324 Z " /><path fill="rgb(91,157,218)" stroke="rgb(91,157,218)" stroke-width="1" opacity="1" d="M 23.5 325 L 24.5 327 L 23.5 325 Z " /><path fill="rgb(91,157,218)" stroke="rgb(91,157,218)" stroke-width="1" opacity="1" d="M 237.5 325 L 239.5 328 L 237.5 325 Z " /><path fill="rgb(91,157,218)" stroke="rgb(91,157,218)" stroke-width="1" opacity="1" d="M 104.5 326 L 102.5 329 L 104.5 326 Z " /><path fill="rgb(91,157,218)" stroke="rgb(91,157,218)" stroke-width="1" opacity="1" d="M 26.5 329 L 28.5 332 L 26.5 329 Z " /><path fill="rgb(91,157,218)" stroke="rgb(91,157,218)" stroke-width="1" opacity="1" d="M 60.5 331 L 64.5 336 L 60.5 331 Z " /><path fill="rgb(91,157,218)" stroke="rgb(91,157,218)" stroke-width="1" opacity="1" d="M 229.5 331 L 233.5 336 L 229.5 331 Z " /><path fill="rgb(91,157,218)" stroke="rgb(91,157,218)" stroke-width="1" opacity="1" d="M 99.5 332 L 93.5 339 L 99.5 332 Z " /><path fill="rgb(91,157,218)" stroke="rgb(91,157,218)" stroke-width="1" opacity="1" d="M 50.5 334 L 51.5 336 L 50.5 334 Z " /><path fill="rgb(91,157,218)" stroke="rgb(91,157,218)" stroke-width="1" opacity="1" d="M 32.5 335 L 34.5 338 L 32.5 335 Z " /><path fill="rgb(91,157,218)" stroke="rgb(91,157,218)" stroke-width="1" opacity="1" d="M 157.5 335 L 158.5 337 L 157.5 335 Z " /><path fill="rgb(91,157,218)" stroke="rgb(91,157,218)" stroke-width="1" opacity="1" d="M 110.5 336 L 109.5 338 L 110.5 336 Z " /><path fill="rgb(91,157,218)" stroke="rgb(91,157,218)" stroke-width="1" opacity="1" d="M 53.5 338 L 57.5 343 L 53.5 338 Z " /><path fill="rgb(91,157,218)" stroke="rgb(91,157,218)" stroke-width="1" opacity="1" d="M 209.5 339 L 208.5 341 L 209.5 339 Z " /><path fill="rgb(91,157,218)" stroke="rgb(91,157,218)" stroke-width="1" opacity="1" d="M 107.5 340 L 105.5 343 L 107.5 340 Z " /><path fill="rgb(91,157,218)" stroke="rgb(91,157,218)" stroke-width="1" opacity="1" d="M 78.5 341 L 86 341.5 L 78.5 342 L 78.5 341 Z " /><path fill="rgb(91,157,218)" stroke="rgb(91,157,218)" stroke-width="1" opacity="1" d="M 238.5 341 L 240.5 344 L 238.5 341 Z " /><path fill="rgb(91,157,218)" stroke="rgb(91,157,218)" stroke-width="1" opacity="1" d="M 163.5 343 L 170.5 351 L 163.5 343 Z " /><path fill="rgb(91,157,218)" stroke="rgb(91,157,218)" stroke-width="1" opacity="1" d="M 189.5 343 L 190 349.5 L 189 349.5 L 189.5 343 Z " /><path fill="rgb(91,157,218)" stroke="rgb(91,157,218)" stroke-width="1" opacity="1" d="M 206.5 343 L 205.5 345 L 206.5 343 Z " /><path fill="rgb(91,157,218)" stroke="rgb(91,157,218)" stroke-width="1" opacity="1" d="M 60.5 344 L 61.5 346 L 60.5 344 Z " /><path fill="rgb(91,157,218)" stroke="rgb(91,157,218)" stroke-width="1" opacity="1" d="M 152.5 345 L 153.5 347 L 152.5 345 Z " /><path fill="rgb(91,157,218)" stroke="rgb(91,157,218)" stroke-width="1" opacity="1" d="M 242.5 346 L 243.5 348 L 242.5 346 Z " /><path fill="rgb(91,157,218)" stroke="rgb(91,157,218)" stroke-width="1" opacity="1" d="M 57.5 347 L 60 347.5 L 57.5 348 L 57.5 347 Z " /><path fill="rgb(91,157,218)" stroke="rgb(91,157,218)" stroke-width="1" opacity="1" d="M 156.5 350 L 162 357 L 152 356.5 L 161 355.5 L 156.5 350 Z " /><path fill="rgb(91,157,218)" stroke="rgb(91,157,218)" stroke-width="1" opacity="1" d="M 245.5 350 L 246.5 352 L 245.5 350 Z " /><path fill="rgb(91,157,218)" stroke="rgb(91,157,218)" stroke-width="1" opacity="1" d="M 190.5 351 L 191.5 353 L 190.5 351 Z " /><path fill="rgb(91,157,218)" stroke="rgb(91,157,218)" stroke-width="1" opacity="1" d="M 258.5 351 L 259 353.5 L 258 353.5 L 258.5 351 Z " /><path fill="rgb(91,157,218)" stroke="rgb(91,157,218)" stroke-width="1" opacity="1" d="M 174.5 353 L 175.5 355 L 174.5 353 Z " /><path fill="rgb(91,157,218)" stroke="rgb(91,157,218)" stroke-width="1" opacity="1" d="M 193.5 353 L 196 353.5 L 193.5 354 L 193.5 353 Z " /><path fill="rgb(91,157,218)" stroke="rgb(91,157,218)" stroke-width="1" opacity="1" d="M 247.5 353 L 248.5 355 L 247.5 353 Z " /><path fill="rgb(91,157,218)" stroke="rgb(91,157,218)" stroke-width="1" opacity="1" d="M 129.5 370 L 130 374.5 L 129 374.5 L 129.5 370 Z " /><path fill="rgb(91,157,218)" stroke="rgb(91,157,218)" stroke-width="1" opacity="1" d="M 120.5 376 L 121.5 378 L 120.5 376 Z " /><path fill="rgb(91,157,218)" stroke="rgb(91,157,218)" stroke-width="1" opacity="1" d="M 122.5 379 L 123.5 381 L 122.5 379 Z " /><path fill="rgb(91,157,218)" stroke="rgb(91,157,218)" stroke-width="1" opacity="1" d="M 128.5 387 L 129.5 389 L 128.5 387 Z " /><path fill="rgb(91,157,218)" stroke="rgb(91,157,218)" stroke-width="1" opacity="1" d="M 292.5 444 L 291.5 446 L 292.5 444 Z " /><path fill="rgb(91,157,218)" stroke="rgb(91,157,218)" stroke-width="1" opacity="1" d="M 270.5 451 L 278 451.5 L 270.5 452 L 270.5 451 Z " /><path fill="rgb(72,181,238)" stroke="rgb(72,181,238)" stroke-width="1" opacity="1" d="M 165.5 61 L 194.5 61 L 195.5 62 L 206.5 63 L 226.5 69 Q 253.2 79.8 271.5 99 L 276.5 99 Q 294.5 79.5 321.5 69 L 333.5 65 L 353.5 61 L 382.5 61 L 402.5 65 Q 418.5 69.5 431.5 77 Q 450.2 87.8 464 103.5 Q 479.3 120.2 488 143.5 L 495 171.5 L 496 194.5 L 495 195.5 L 495 205.5 L 493 216.5 L 488 233 L 482.5 234 L 468.5 234 L 467.5 235 L 449.5 235 L 448.5 236 L 372.5 237 L 371.5 236 L 341.5 236 L 340.5 235 L 307.5 234 L 306.5 233 L 294.5 233 L 293.5 232 L 283.5 232 L 282.5 231 L 264 230 Q 263.9 197.4 245.5 182 Q 236.8 173.7 224.5 169 L 211.5 166 L 197.5 166 Q 172.1 170.1 160 187.5 L 147 205.5 L 133.5 228 Q 116.3 230.8 107.5 242 L 98.5 242 L 97.5 241 L 66.5 240 L 63 241 Q 57.1 228.1 54 211.5 L 53 196.5 L 52 195.5 L 52 180.5 L 53 179.5 L 53 170.5 L 56 155.5 L 64 133.5 Q 76.2 108.2 96.5 91 Q 111.1 78.1 130.5 70 L 148.5 64 L 165.5 61 Z " /><path fill="rgb(72,181,238)" stroke="rgb(72,181,238)" stroke-width="1" opacity="1" d="M 203.5 220 Q 223.1 219.4 230 231.5 L 235 243.5 L 235 252.5 Q 232.3 263.8 224.5 270 L 211.5 273 L 177.5 273 L 170 271.5 L 173 265.5 L 174 253.5 L 169 240.5 L 192.5 224 L 203.5 220 Z " /><path fill="rgb(72,181,238)" stroke="rgb(72,181,238)" stroke-width="1" opacity="1" d="M 98.5 277 Q 100.8 276.3 100 278.5 Q 103.3 286.7 110.5 291 L 119.5 295 L 123 295 Q 111.9 321.6 91.5 340 Q 85.6 342.6 75.5 341 Q 64.6 337.9 59 329.5 L 55 320.5 L 54 313.5 L 56 303.5 L 64.5 292 L 75.5 286 L 98.5 277 Z " /><path fill="rgb(72,181,238)" stroke="rgb(72,181,238)" stroke-width="1" opacity="1" d="M 155.5 288 L 174 304.5 L 185 323.5 L 189 338.5 L 189 349.5 L 191.5 353 L 195.5 354 L 207 343.5 L 218.5 323 Q 230.1 329.9 238 340.5 L 251.5 358 Q 257 359 258 355.5 L 259 351.5 L 254 326.5 L 248 310 L 252.5 311 L 286.5 312 L 287.5 313 L 312.5 313 L 313.5 314 L 395.5 314 L 396.5 313 L 423.5 313 L 293.5 444 L 280.5 451 L 267.5 451 L 255.5 445 L 176 365.5 L 179 361.5 L 179 357.5 L 161 340.5 Q 152.1 329.4 148 313.5 L 146 293 L 155.5 288 Z " /><path fill="rgb(0,0,0)" stroke="rgb(0,0,0)" stroke-width="1" opacity="0" d="M 0 0 L 512 0 L 512 512 L 0 512 L 0 0 Z M 169 50 L 142 55 L 125 61 Q 105 70 90 83 Q 70 100 57 124 L 46 152 L 42 173 L 42 204 Q 45 205 43 211 L 48 232 L 52 242 Q 36 243 27 253 Q 11 266 6 290 L 6 309 L 7 314 Q 10 326 17 335 Q 25 345 38 352 L 57 358 L 75 358 L 80 357 L 97 350 Q 106 379 124 399 L 143 416 L 148 415 L 150 412 L 144 395 L 139 370 L 140 364 L 152 367 L 163 367 L 249 453 Q 256 460 269 462 L 285 461 L 300 453 L 312 440 L 417 336 L 468 285 L 482 268 Q 493 253 499 235 L 504 217 L 505 205 L 506 204 L 506 174 L 501 149 Q 492 118 473 98 Q 457 79 436 67 L 407 55 L 379 50 L 349 51 L 330 55 L 318 59 Q 293 69 275 86 L 253 70 L 231 59 L 219 55 L 200 51 Q 193 53 192 50 L 169 50 Z " /><path fill="rgb(227,230,243)" stroke="rgb(227,230,243)" stroke-width="1" opacity="1" d="M 198.5 176 L 201 176.5 L 198.5 177 L 198.5 176 Z " /><path fill="rgb(227,230,243)" stroke="rgb(227,230,243)" stroke-width="1" opacity="1" d="M 208.5 176 L 211 176.5 L 208.5 177 L 208.5 176 Z " /><path fill="rgb(227,230,243)" stroke="rgb(227,230,243)" stroke-width="1" opacity="1" d="M 231.5 184 L 232.5 186 L 231.5 184 Z " /><path fill="rgb(227,230,243)" stroke="rgb(227,230,243)" stroke-width="1" opacity="1" d="M 176.5 185 L 169.5 193 L 176.5 185 Z " /><path fill="rgb(227,230,243)" stroke="rgb(227,230,243)" stroke-width="1" opacity="1" d="M 235.5 187 L 242.5 195 L 235.5 187 Z " /><path fill="rgb(227,230,243)" stroke="rgb(227,230,243)" stroke-width="1" opacity="1" d="M 166.5 196 L 165.5 198 L 166.5 196 Z " /><path fill="rgb(227,230,243)" stroke="rgb(227,230,243)" stroke-width="1" opacity="1" d="M 163.5 200 L 162.5 202 L 163.5 200 Z " /><path fill="rgb(227,230,243)" stroke="rgb(227,230,243)" stroke-width="1" opacity="1" d="M 155.5 212 L 154.5 214 L 155.5 212 Z " /><path fill="rgb(227,230,243)" stroke="rgb(227,230,243)" stroke-width="1" opacity="1" d="M 183.5 217 L 182.5 219 L 183.5 217 Z " /><path fill="rgb(227,230,243)" stroke="rgb(227,230,243)" stroke-width="1" opacity="1" d="M 230.5 217 L 231.5 219 L 230.5 217 Z " /><path fill="rgb(227,230,243)" stroke="rgb(227,230,243)" stroke-width="1" opacity="1" d="M 253.5 220 L 254 222.5 L 253 222.5 L 253.5 220 Z " /><path fill="rgb(227,230,243)" stroke="rgb(227,230,243)" stroke-width="1" opacity="1" d="M 236.5 223 L 237.5 225 L 236.5 223 Z " /><path fill="rgb(227,230,243)" stroke="rgb(227,230,243)" stroke-width="1" opacity="1" d="M 171.5 225 L 170.5 227 L 171.5 225 Z " /><path fill="rgb(227,230,243)" stroke="rgb(227,230,243)" stroke-width="1" opacity="1" d="M 253.5 228 L 254 230.5 L 253 230.5 L 253.5 228 Z " /><path fill="rgb(227,230,243)" stroke="rgb(227,230,243)" stroke-width="1" opacity="1" d="M 137.5 237 L 145 237.5 L 137.5 238 L 137.5 237 Z " /><path fill="rgb(227,230,243)" stroke="rgb(227,230,243)" stroke-width="1" opacity="1" d="M 266.5 240 L 269 240.5 L 266.5 241 L 266.5 240 Z " /><path fill="rgb(227,230,243)" stroke="rgb(227,230,243)" stroke-width="1" opacity="1" d="M 276.5 241 L 279 241.5 L 276.5 242 L 276.5 241 Z " /><path fill="rgb(227,230,243)" stroke="rgb(227,230,243)" stroke-width="1" opacity="1" d="M 156.5 242 L 159.5 246 L 156.5 242 Z " /><path fill="rgb(227,230,243)" stroke="rgb(227,230,243)" stroke-width="1" opacity="1" d="M 287.5 242 L 290 242.5 L 287.5 243 L 287.5 242 Z " /><path fill="rgb(227,230,243)" stroke="rgb(227,230,243)" stroke-width="1" opacity="1" d="M 299.5 243 L 302 243.5 L 299.5 244 L 299.5 243 Z " /><path fill="rgb(227,230,243)" stroke="rgb(227,230,243)" stroke-width="1" opacity="1" d="M 312.5 244 L 317 244.5 L 312.5 245 L 312.5 244 Z " /><path fill="rgb(227,230,243)" stroke="rgb(227,230,243)" stroke-width="1" opacity="1" d="M 473.5 244 L 478 244.5 L 473.5 245 L 473.5 244 Z " /><path fill="rgb(227,230,243)" stroke="rgb(227,230,243)" stroke-width="1" opacity="1" d="M 328.5 245 L 334 245.5 L 328.5 246 L 328.5 245 Z " /><path fill="rgb(227,230,243)" stroke="rgb(227,230,243)" stroke-width="1" opacity="1" d="M 456.5 245 L 462 245.5 L 456.5 246 L 456.5 245 Z " /><path fill="rgb(227,230,243)" stroke="rgb(227,230,243)" stroke-width="1" opacity="1" d="M 117.5 246 L 115.5 249 L 117.5 246 Z " /><path fill="rgb(227,230,243)" stroke="rgb(227,230,243)" stroke-width="1" opacity="1" d="M 350.5 246 L 360 246.5 L 350.5 247 L 350.5 246 Z " /><path fill="rgb(227,230,243)" stroke="rgb(227,230,243)" stroke-width="1" opacity="1" d="M 431.5 246 L 440 246.5 L 431.5 247 L 431.5 246 Z " /><path fill="rgb(227,230,243)" stroke="rgb(227,230,243)" stroke-width="1" opacity="1" d="M 56.5 251 L 59 251.5 L 56.5 252 L 56.5 251 Z " /><path fill="rgb(227,230,243)" stroke="rgb(227,230,243)" stroke-width="1" opacity="1" d="M 90.5 251 L 94 251.5 L 90.5 252 L 90.5 251 Z " /><path fill="rgb(227,230,243)" stroke="rgb(227,230,243)" stroke-width="1" opacity="1" d="M 34.5 260 L 32.5 263 L 34.5 260 Z " /><path fill="rgb(227,230,243)" stroke="rgb(227,230,243)" stroke-width="1" opacity="1" d="M 251.5 261 L 250.5 263 L 251.5 261 Z " /><path fill="rgb(227,230,243)" stroke="rgb(227,230,243)" stroke-width="1" opacity="1" d="M 471.5 263 L 470.5 265 L 471.5 263 Z " /><path fill="rgb(227,230,243)" stroke="rgb(227,230,243)" stroke-width="1" opacity="1" d="M 97.5 264 L 98 266.5 L 97 266.5 L 97.5 264 Z " /><path fill="rgb(227,230,243)" stroke="rgb(227,230,243)" stroke-width="1" opacity="1" d="M 29.5 265 L 26.5 269 L 29.5 265 Z " /><path fill="rgb(227,230,243)" stroke="rgb(227,230,243)" stroke-width="1" opacity="1" d="M 467.5 268 L 466.5 270 L 467.5 268 Z " /><path fill="rgb(227,230,243)" stroke="rgb(227,230,243)" stroke-width="1" opacity="1" d="M 157.5 272 L 156.5 274 L 157.5 272 Z " /><path fill="rgb(227,230,243)" stroke="rgb(227,230,243)" stroke-width="1" opacity="1" d="M 237.5 274 L 236.5 276 L 237.5 274 Z " /><path fill="rgb(227,230,243)" stroke="rgb(227,230,243)" stroke-width="1" opacity="1" d="M 462.5 274 L 446.5 291 L 462.5 274 Z " /><path fill="rgb(227,230,243)" stroke="rgb(227,230,243)" stroke-width="1" opacity="1" d="M 152.5 277 L 151.5 279 L 152.5 277 Z " /><path fill="rgb(227,230,243)" stroke="rgb(227,230,243)" stroke-width="1" opacity="1" d="M 165.5 282 L 166.5 284 L 165.5 282 Z " /><path fill="rgb(227,230,243)" stroke="rgb(227,230,243)" stroke-width="1" opacity="1" d="M 180.5 283 L 183 283.5 L 180.5 284 L 180.5 283 Z " /><path fill="rgb(227,230,243)" stroke="rgb(227,230,243)" stroke-width="1" opacity="1" d="M 57.5 284 L 53.5 289 L 57.5 284 Z " /><path fill="rgb(227,230,243)" stroke="rgb(227,230,243)" stroke-width="1" opacity="1" d="M 193.5 284 L 211 284.5 L 193.5 285 L 193.5 284 Z " /><path fill="rgb(227,230,243)" stroke="rgb(227,230,243)" stroke-width="1" opacity="1" d="M 169.5 285 L 172.5 289 L 169.5 285 Z " /><path fill="rgb(227,230,243)" stroke="rgb(227,230,243)" stroke-width="1" opacity="1" d="M 16.5 292 L 17 294.5 L 16 294.5 L 16.5 292 Z " /><path fill="rgb(227,230,243)" stroke="rgb(227,230,243)" stroke-width="1" opacity="1" d="M 178.5 294 L 180.5 297 L 178.5 294 Z " /><path fill="rgb(227,230,243)" stroke="rgb(227,230,243)" stroke-width="1" opacity="1" d="M 242.5 298 L 245 299.5 L 243.5 300 L 242.5 298 Z " /><path fill="rgb(227,230,243)" stroke="rgb(227,230,243)" stroke-width="1" opacity="1" d="M 437.5 299 L 435.5 302 L 434 301.5 L 437.5 299 Z " /><path fill="rgb(227,230,243)" stroke="rgb(227,230,243)" stroke-width="1" opacity="1" d="M 183.5 300 L 184.5 302 L 183.5 300 Z " /><path fill="rgb(227,230,243)" stroke="rgb(227,230,243)" stroke-width="1" opacity="1" d="M 256.5 300 L 261 300.5 L 256.5 301 L 256.5 300 Z " /><path fill="rgb(227,230,243)" stroke="rgb(227,230,243)" stroke-width="1" opacity="1" d="M 273.5 301 L 279 301.5 L 273.5 302 L 273.5 301 Z " /><path fill="rgb(227,230,243)" stroke="rgb(227,230,243)" stroke-width="1" opacity="1" d="M 294.5 302 L 303 302.5 L 294.5 303 L 294.5 302 Z " /><path fill="rgb(227,230,243)" stroke="rgb(227,230,243)" stroke-width="1" opacity="1" d="M 410.5 302 L 418 302.5 L 410.5 303 L 410.5 302 Z " /><path fill="rgb(227,230,243)" stroke="rgb(227,230,243)" stroke-width="1" opacity="1" d="M 330.5 303 L 384 303.5 L 330.5 304 L 330.5 303 Z " /><path fill="rgb(227,230,243)" stroke="rgb(227,230,243)" stroke-width="1" opacity="1" d="M 136.5 304 L 137 306.5 L 136 306.5 L 136.5 304 Z " /><path fill="rgb(227,230,243)" stroke="rgb(227,230,243)" stroke-width="1" opacity="1" d="M 222.5 312 L 223.5 314 L 222.5 312 Z " /><path fill="rgb(227,230,243)" stroke="rgb(227,230,243)" stroke-width="1" opacity="1" d="M 226.5 315 L 227.5 317 L 226.5 315 Z " /><path fill="rgb(227,230,243)" stroke="rgb(227,230,243)" stroke-width="1" opacity="1" d="M 44.5 318 L 45 320.5 L 44 320.5 L 44.5 318 Z " /><path fill="rgb(227,230,243)" stroke="rgb(227,230,243)" stroke-width="1" opacity="1" d="M 231.5 319 L 236.5 325 L 231.5 319 Z " /><path fill="rgb(227,230,243)" stroke="rgb(227,230,243)" stroke-width="1" opacity="1" d="M 240.5 328 L 244.5 333 L 240.5 328 Z " /><path fill="rgb(227,230,243)" stroke="rgb(227,230,243)" stroke-width="1" opacity="1" d="M 29.5 332 L 31.5 335 L 29.5 332 Z " /><path fill="rgb(227,230,243)" stroke="rgb(227,230,243)" stroke-width="1" opacity="1" d="M 112.5 334 L 111.5 336 L 112.5 334 Z " /><path fill="rgb(227,230,243)" stroke="rgb(227,230,243)" stroke-width="1" opacity="1" d="M 51.5 336 L 52.5 338 L 51.5 336 Z " /><path fill="rgb(227,230,243)" stroke="rgb(227,230,243)" stroke-width="1" opacity="1" d="M 35.5 337 L 36.5 339 L 35.5 337 Z " /><path fill="rgb(227,230,243)" stroke="rgb(227,230,243)" stroke-width="1" opacity="1" d="M 109.5 338 L 108.5 340 L 109.5 338 Z " /><path fill="rgb(227,230,243)" stroke="rgb(227,230,243)" stroke-width="1" opacity="1" d="M 58.5 343 L 59.5 345 L 58.5 343 Z " /><path fill="rgb(227,230,243)" stroke="rgb(227,230,243)" stroke-width="1" opacity="1" d="M 62.5 346 L 65 347.5 L 60.5 348 L 60.5 347 L 62.5 346 Z " /><path fill="rgb(227,230,243)" stroke="rgb(227,230,243)" stroke-width="1" opacity="1" d="M 153.5 347 L 155.5 350 L 153.5 347 Z " /><path fill="rgb(227,230,243)" stroke="rgb(227,230,243)" stroke-width="1" opacity="1" d="M 132.5 351 L 135 351.5 L 132.5 352 L 132.5 351 Z " /><path fill="rgb(227,230,243)" stroke="rgb(227,230,243)" stroke-width="1" opacity="1" d="M 130.5 352 L 129.5 354 L 130.5 352 Z " /><path fill="rgb(227,230,243)" stroke="rgb(227,230,243)" stroke-width="1" opacity="1" d="M 128.5 356 L 129 366.5 L 128 366.5 L 128.5 356 Z " /><path fill="rgb(227,230,243)" stroke="rgb(227,230,243)" stroke-width="1" opacity="1" d="M 126.5 384 L 127.5 386 L 126.5 384 Z " /><path fill="rgb(227,230,243)" stroke="rgb(227,230,243)" stroke-width="1" opacity="1" d="M 130.5 389 L 132.5 392 L 130.5 389 Z " /><path fill="rgb(255,255,255)" stroke="rgb(255,255,255)" stroke-width="1" opacity="1" d="M 201.5 176 L 214.5 177 L 223.5 180 Q 236.1 185.9 244 196.5 Q 253.4 207.6 254 227.5 L 251 241.5 L 245.5 252 L 245 249.5 L 246 247.5 L 245 246.5 L 244 235.5 L 240 227.5 L 230.5 217 L 215.5 210 L 199.5 210 L 190.5 213 L 162.5 232 L 159.5 232 L 147 226.5 L 161 203.5 L 178.5 184 L 185.5 180 L 201.5 176 Z " /><path fill="rgb(255,255,255)" stroke="rgb(255,255,255)" stroke-width="1" opacity="1" d="M 133.5 238 Q 154.5 235.5 161 247.5 Q 164.3 252.2 163 261.5 Q 160.1 271.1 153.5 277 Q 144.5 286 126.5 286 Q 117 284.4 112 278.5 Q 106.7 273.8 108 262.5 Q 111.3 250.3 120.5 244 L 133.5 238 Z " /><path fill="rgb(255,255,255)" stroke="rgb(255,255,255)" stroke-width="1" opacity="1" d="M 262 240 Q 266.9 241.8 275.5 241 L 276.5 242 L 286.5 242 L 287.5 243 L 298.5 243 L 299.5 244 L 327.5 245 L 328.5 246 L 349.5 246 L 350.5 247 L 439.5 247 L 440.5 246 L 461.5 246 L 462.5 245 L 477.5 245 L 482.5 244 L 482 245.5 Q 475.8 259.8 466 270.5 L 435.5 301 L 433.5 302 L 410.5 302 L 409.5 303 L 303.5 303 L 302.5 302 L 279.5 302 L 278.5 301 L 245.5 300 L 242 297.5 L 231 278 Q 244 272.9 252 261.5 Q 259.6 252.6 262 240 Z " /><path fill="rgb(255,255,255)" stroke="rgb(255,255,255)" stroke-width="1" opacity="1" d="M 59.5 251 L 89.5 251 L 90.5 252 L 101 252.5 L 98 258.5 L 97 267 L 69.5 277 Q 59.4 280.9 53 288.5 Q 47.3 294.3 45 303.5 Q 42.7 310.2 44 320.5 Q 47.8 336.7 59.5 345 L 62 346.5 L 55.5 347 Q 36.3 342.3 26 328.5 L 18 312.5 L 16 302.5 L 16 295.5 L 20 279.5 Q 24.3 269.8 31.5 263 L 45.5 254 L 59.5 251 Z " /><path fill="rgb(255,255,255)" stroke="rgb(255,255,255)" stroke-width="1" opacity="1" d="M 166.5 282 L 179.5 283 L 180.5 284 L 192.5 284 L 193.5 285 L 210.5 285 L 220.5 283 Q 236.6 302.4 244 330.5 L 231.5 319 L 215.5 308 L 210 311.5 Q 207.3 326.3 199.5 336 L 194 317.5 L 190 309.5 Q 181.8 295.2 169.5 285 L 166.5 282 Z " /><path fill="rgb(255,255,255)" stroke="rgb(255,255,255)" stroke-width="1" opacity="1" d="M 135.5 296 Q 137.8 336.2 161 355.5 L 150.5 356 L 132.5 351 L 129 353.5 Q 126.8 358.3 128 366.5 L 132 389.5 L 128 386.5 Q 113.4 368.1 105 343.5 Q 123.3 322.8 135.5 296 Z " /><path fill="rgb(39,62,163)" stroke="rgb(39,62,163)" stroke-width="1" opacity="0.5098039215686274" d="M 168.5 50 L 192 50.5 L 168.5 51 L 168.5 50 Z " /><path fill="rgb(39,62,163)" stroke="rgb(39,62,163)" stroke-width="1" opacity="0.5098039215686274" d="M 357.5 50 L 379 50.5 L 357.5 51 L 357.5 50 Z " /><path fill="rgb(39,62,163)" stroke="rgb(39,62,163)" stroke-width="1" opacity="0.5098039215686274" d="M 159.5 51 L 165 51.5 L 159.5 52 L 159.5 51 Z " /><path fill="rgb(39,62,163)" stroke="rgb(39,62,163)" stroke-width="1" opacity="0.5098039215686274" d="M 194.5 51 L 200 51.5 L 194.5 52 L 194.5 51 Z " /><path fill="rgb(39,62,163)" stroke="rgb(39,62,163)" stroke-width="1" opacity="0.5098039215686274" d="M 348.5 51 L 354 51.5 L 348.5 52 L 348.5 51 Z " /><path fill="rgb(39,62,163)" stroke="rgb(39,62,163)" stroke-width="1" opacity="0.5098039215686274" d="M 382.5 51 L 388 51.5 L 382.5 52 L 382.5 51 Z " /><path fill="rgb(39,62,163)" stroke="rgb(39,62,163)" stroke-width="1" opacity="0.5098039215686274" d="M 154.5 52 L 158 52.5 L 154.5 53 L 154.5 52 Z " /><path fill="rgb(39,62,163)" stroke="rgb(39,62,163)" stroke-width="1" opacity="0.5098039215686274" d="M 202.5 52 L 206 52.5 L 202.5 53 L 202.5 52 Z " /><path fill="rgb(39,62,163)" stroke="rgb(39,62,163)" stroke-width="1" opacity="0.5098039215686274" d="M 342.5 52 L 346 52.5 L 342.5 53 L 342.5 52 Z " /><path fill="rgb(39,62,163)" stroke="rgb(39,62,163)" stroke-width="1" opacity="0.5098039215686274" d="M 390.5 52 L 394 52.5 L 390.5 53 L 390.5 52 Z " /><path fill="rgb(39,62,163)" stroke="rgb(39,62,163)" stroke-width="1" opacity="0.5098039215686274" d="M 149.5 53 L 152 53.5 L 149.5 54 L 149.5 53 Z " /><path fill="rgb(39,62,163)" stroke="rgb(39,62,163)" stroke-width="1" opacity="0.5098039215686274" d="M 207.5 53 L 211 53.5 L 207.5 54 L 207.5 53 Z " /><path fill="rgb(39,62,163)" stroke="rgb(39,62,163)" stroke-width="1" opacity="0.5098039215686274" d="M 337.5 53 L 341 53.5 L 337.5 54 L 337.5 53 Z " /><path fill="rgb(39,62,163)" stroke="rgb(39,62,163)" stroke-width="1" opacity="0.5098039215686274" d="M 395.5 53 L 399 53.5 L 395.5 54 L 395.5 53 Z " /><path fill="rgb(39,62,163)" stroke="rgb(39,62,163)" stroke-width="1" opacity="0.5098039215686274" d="M 145.5 54 L 148 54.5 L 145.5 55 L 145.5 54 Z " /><path fill="rgb(39,62,163)" stroke="rgb(39,62,163)" stroke-width="1" opacity="0.5098039215686274" d="M 212.5 54 L 215 54.5 L 212.5 55 L 212.5 54 Z " /><path fill="rgb(39,62,163)" stroke="rgb(39,62,163)" stroke-width="1" opacity="0.5098039215686274" d="M 333.5 54 L 336 54.5 L 333.5 55 L 333.5 54 Z " /><path fill="rgb(39,62,163)" stroke="rgb(39,62,163)" stroke-width="1" opacity="0.5098039215686274" d="M 400.5 54 L 403 54.5 L 400.5 55 L 400.5 54 Z " /><path fill="rgb(39,62,163)" stroke="rgb(39,62,163)" stroke-width="1" opacity="0.5098039215686274" d="M 141.5 55 L 144 55.5 L 141.5 56 L 141.5 55 Z " /><path fill="rgb(39,62,163)" stroke="rgb(39,62,163)" stroke-width="1" opacity="0.5098039215686274" d="M 216.5 55 L 222 56.5 L 219.5 57 L 216.5 56 L 216.5 55 Z " /><path fill="rgb(39,62,163)" stroke="rgb(39,62,163)" stroke-width="1" opacity="0.5098039215686274" d="M 329.5 55 L 332 55.5 L 326.5 57 L 326.5 56 L 329.5 55 Z " /><path fill="rgb(39,62,163)" stroke="rgb(39,62,163)" stroke-width="1" opacity="0.5098039215686274" d="M 404.5 55 L 410 56.5 L 407.5 57 L 404.5 56 L 404.5 55 Z " /><path fill="rgb(39,62,163)" stroke="rgb(39,62,163)" stroke-width="1" opacity="0.5098039215686274" d="M 223.5 57 L 235 61.5 L 233.5 62 L 223.5 58 L 223.5 57 Z " /><path fill="rgb(39,62,163)" stroke="rgb(39,62,163)" stroke-width="1" opacity="0.5098039215686274" d="M 320.5 58 L 322 58.5 L 299.5 69 L 300.5 67 L 320.5 58 Z " /><path fill="rgb(39,62,163)" stroke="rgb(39,62,163)" stroke-width="1" opacity="0.5098039215686274" d="M 414.5 58 L 423 61.5 L 421.5 62 L 414.5 59 L 414.5 58 Z " /><path fill="rgb(39,62,163)" stroke="rgb(39,62,163)" stroke-width="1" opacity="0.5098039215686274" d="M 129.5 59 L 131 59.5 L 127.5 61 L 127.5 60 L 129.5 59 Z " /><path fill="rgb(39,62,163)" stroke="rgb(39,62,163)" stroke-width="1" opacity="0.5098039215686274" d="M 124.5 61 L 126 61.5 L 106.5 72 L 107.5 70 L 124.5 61 Z " /><path fill="rgb(39,62,163)" stroke="rgb(39,62,163)" stroke-width="1" opacity="0.5098039215686274" d="M 236.5 62 L 252.5 70 L 274.5 86 L 297.5 69 L 296.5 71 L 273.5 87 L 261.5 77 Q 250.5 68.5 236.5 63 L 236.5 62 Z " /><path fill="rgb(39,62,163)" stroke="rgb(39,62,163)" stroke-width="1" opacity="0.5098039215686274" d="M 424.5 62 L 437 68.5 L 435.5 68 L 424.5 63 L 424.5 62 Z " /><path fill="rgb(39,62,163)" stroke="rgb(39,62,163)" stroke-width="1" opacity="0.5098039215686274" d="M 438.5 69 Q 458.5 80.5 473 97.5 Q 487.4 113.6 496 135.5 L 495 135.5 Q 482.7 104.8 459.5 85 L 439.5 71 L 438.5 69 Z " /><path fill="rgb(39,62,163)" stroke="rgb(39,62,163)" stroke-width="1" opacity="0.5098039215686274" d="M 104.5 72 L 103.5 74 Q 87 84 75 98.5 Q 63.3 111.8 55.5 129 L 55 127.5 Q 68.2 101.2 89.5 83 L 104.5 72 Z " /><path fill="rgb(39,62,163)" stroke="rgb(39,62,163)" stroke-width="1" opacity="0.5098039215686274" d="M 53.5 132 L 54 133.5 L 52.5 136 L 52 134.5 L 53.5 132 Z " /><path fill="rgb(39,62,163)" stroke="rgb(39,62,163)" stroke-width="1" opacity="0.5098039215686274" d="M 51.5 137 L 52 138.5 L 50.5 141 L 50 139.5 L 51.5 137 Z " /><path fill="rgb(39,62,163)" stroke="rgb(39,62,163)" stroke-width="1" opacity="0.5098039215686274" d="M 496.5 137 L 501 150.5 L 500 150.5 L 496.5 137 Z " /><path fill="rgb(39,62,163)" stroke="rgb(39,62,163)" stroke-width="1" opacity="0.5098039215686274" d="M 47.5 148 L 48 150.5 L 45.5 159 L 45 155.5 L 47.5 148 Z " /><path fill="rgb(39,62,163)" stroke="rgb(39,62,163)" stroke-width="1" opacity="0.5098039215686274" d="M 501.5 152 L 502 154.5 L 501 154.5 L 501.5 152 Z " /><path fill="rgb(39,62,163)" stroke="rgb(39,62,163)" stroke-width="1" opacity="0.5098039215686274" d="M 502.5 156 L 503 158.5 L 502 158.5 L 502.5 156 Z " /><path fill="rgb(39,62,163)" stroke="rgb(39,62,163)" stroke-width="1" opacity="0.5098039215686274" d="M 44.5 160 L 45 163.5 L 44 163.5 L 44.5 160 Z " /><path fill="rgb(39,62,163)" stroke="rgb(39,62,163)" stroke-width="1" opacity="0.5098039215686274" d="M 503.5 160 L 504 163.5 L 503 163.5 L 503.5 160 Z " /><path fill="rgb(39,62,163)" stroke="rgb(39,62,163)" stroke-width="1" opacity="0.5098039215686274" d="M 43.5 165 L 44 170.5 L 43 170.5 L 43.5 165 Z " /><path fill="rgb(39,62,163)" stroke="rgb(39,62,163)" stroke-width="1" opacity="0.5098039215686274" d="M 504.5 165 L 505 170.5 L 504 170.5 L 504.5 165 Z " /><path fill="rgb(39,62,163)" stroke="rgb(39,62,163)" stroke-width="1" opacity="0.5098039215686274" d="M 42.5 172 L 43 181.5 L 42 181.5 L 42.5 172 Z " /><path fill="rgb(39,62,163)" stroke="rgb(39,62,163)" stroke-width="1" opacity="0.5098039215686274" d="M 505.5 173 L 506 182.5 L 505 182.5 L 505.5 173 Z " /><path fill="rgb(39,62,163)" stroke="rgb(39,62,163)" stroke-width="1" opacity="0.5098039215686274" d="M 42.5 194 L 43 203.5 L 42 203.5 L 42.5 194 Z " /><path fill="rgb(39,62,163)" stroke="rgb(39,62,163)" stroke-width="1" opacity="0.5098039215686274" d="M 505.5 194 L 506 203.5 L 505 203.5 L 505.5 194 Z " /><path fill="rgb(39,62,163)" stroke="rgb(39,62,163)" stroke-width="1" opacity="0.5098039215686274" d="M 43.5 206 L 44 210.5 L 43 210.5 L 43.5 206 Z " /><path fill="rgb(39,62,163)" stroke="rgb(39,62,163)" stroke-width="1" opacity="0.5098039215686274" d="M 504.5 206 L 505 210.5 L 504 210.5 L 504.5 206 Z " /><path fill="rgb(39,62,163)" stroke="rgb(39,62,163)" stroke-width="1" opacity="0.5098039215686274" d="M 44.5 212 L 45 215.5 L 44 215.5 L 44.5 212 Z " /><path fill="rgb(39,62,163)" stroke="rgb(39,62,163)" stroke-width="1" opacity="0.5098039215686274" d="M 503.5 212 L 504 216.5 L 503 216.5 L 503.5 212 Z " /><path fill="rgb(39,62,163)" stroke="rgb(39,62,163)" stroke-width="1" opacity="0.5098039215686274" d="M 45.5 218 L 46 220.5 L 45 220.5 L 45.5 218 Z " /><path fill="rgb(39,62,163)" stroke="rgb(39,62,163)" stroke-width="1" opacity="0.5098039215686274" d="M 502.5 218 L 503 220.5 L 502 220.5 L 502.5 218 Z " /><path fill="rgb(39,62,163)" stroke="rgb(39,62,163)" stroke-width="1" opacity="0.5098039215686274" d="M 46.5 222 L 47 224.5 L 46 224.5 L 46.5 222 Z " /><path fill="rgb(39,62,163)" stroke="rgb(39,62,163)" stroke-width="1" opacity="0.5098039215686274" d="M 501.5 222 L 502 224.5 L 501 224.5 L 501.5 222 Z " /><path fill="rgb(39,62,163)" stroke="rgb(39,62,163)" stroke-width="1" opacity="0.5098039215686274" d="M 48.5 229 L 51 236.5 L 50 236.5 L 48.5 229 Z " /><path fill="rgb(39,62,163)" stroke="rgb(39,62,163)" stroke-width="1" opacity="0.5098039215686274" d="M 499.5 229 L 500 231.5 L 497.5 237 L 497 235.5 L 499.5 229 Z " /><path fill="rgb(39,62,163)" stroke="rgb(39,62,163)" stroke-width="1" opacity="0.5098039215686274" d="M 51.5 238 L 53 241.5 Q 52.3 243.8 48.5 243 L 48.5 242 Q 52.9 243.5 52 240.5 L 51.5 238 Z " /><path fill="rgb(39,62,163)" stroke="rgb(39,62,163)" stroke-width="1" opacity="0.5098039215686274" d="M 496.5 238 L 497 239.5 L 495.5 242 L 495 240.5 L 496.5 238 Z " /><path fill="rgb(39,62,163)" stroke="rgb(39,62,163)" stroke-width="1" opacity="0.5098039215686274" d="M 44.5 243 L 47 243.5 L 44.5 244 L 44.5 243 Z " /><path fill="rgb(39,62,163)" stroke="rgb(39,62,163)" stroke-width="1" opacity="0.5098039215686274" d="M 494.5 243 L 495 244.5 Q 487.2 262.7 475 276.5 L 416.5 336 L 312 439.5 L 299.5 453 L 287.5 460 L 281.5 461 L 281.5 460 Q 297.1 457.1 305 446.5 L 422.5 328 L 465 286.5 Q 483.5 268.5 494.5 243 Z " /><path fill="rgb(39,62,163)" stroke="rgb(39,62,163)" stroke-width="1" opacity="0.5098039215686274" d="M 41.5 244 L 43 244.5 L 39.5 246 L 39.5 245 L 41.5 244 Z " /><path fill="rgb(39,62,163)" stroke="rgb(39,62,163)" stroke-width="1" opacity="0.5098039215686274" d="M 35.5 247 L 34.5 249 L 21 259.5 Q 14.3 266.8 10.5 277 L 10 275.5 Q 15.8 261.8 26.5 253 L 35.5 247 Z " /><path fill="rgb(39,62,163)" stroke="rgb(39,62,163)" stroke-width="1" opacity="0.5098039215686274" d="M 9.5 278 L 10 279.5 L 8.5 283 L 8 280.5 L 9.5 278 Z " /><path fill="rgb(39,62,163)" stroke="rgb(39,62,163)" stroke-width="1" opacity="0.5098039215686274" d="M 7.5 284 L 8 286.5 L 7 286.5 L 7.5 284 Z " /><path fill="rgb(39,62,163)" stroke="rgb(39,62,163)" stroke-width="1" opacity="0.5098039215686274" d="M 6.5 289 L 7 295.5 L 6 295.5 L 6.5 289 Z " /><path fill="rgb(39,62,163)" stroke="rgb(39,62,163)" stroke-width="1" opacity="0.5098039215686274" d="M 6.5 302 L 7 308.5 L 6 308.5 L 6.5 302 Z " /><path fill="rgb(39,62,163)" stroke="rgb(39,62,163)" stroke-width="1" opacity="0.5098039215686274" d="M 7.5 310 L 9 316.5 L 8 316.5 L 7.5 310 Z " /><path fill="rgb(39,62,163)" stroke="rgb(39,62,163)" stroke-width="1" opacity="0.5098039215686274" d="M 9.5 318 Q 15.3 335.2 28.5 345 L 39 351.5 L 37.5 352 Q 25.3 345.2 17 334.5 L 10 322.5 L 9.5 318 Z " /><path fill="rgb(39,62,163)" stroke="rgb(39,62,163)" stroke-width="1" opacity="0.5098039215686274" d="M 95.5 349 L 97 349.5 L 87.5 354 L 87.5 353 L 95.5 349 Z " /><path fill="rgb(39,62,163)" stroke="rgb(39,62,163)" stroke-width="1" opacity="0.5098039215686274" d="M 42.5 353 L 50 355.5 L 47.5 356 L 42.5 354 L 42.5 353 Z " /><path fill="rgb(39,62,163)" stroke="rgb(39,62,163)" stroke-width="1" opacity="0.5098039215686274" d="M 98.5 354 L 100 357.5 L 99 357.5 L 98.5 354 Z " /><path fill="rgb(39,62,163)" stroke="rgb(39,62,163)" stroke-width="1" opacity="0.5098039215686274" d="M 80.5 355 L 83 355.5 L 76.5 357 L 76.5 356 L 80.5 355 Z " /><path fill="rgb(39,62,163)" stroke="rgb(39,62,163)" stroke-width="1" opacity="0.5098039215686274" d="M 51.5 356 L 54 356.5 L 51.5 357 L 51.5 356 Z " /><path fill="rgb(39,62,163)" stroke="rgb(39,62,163)" stroke-width="1" opacity="0.5098039215686274" d="M 56.5 357 L 64 357.5 L 56.5 358 L 56.5 357 Z " /><path fill="rgb(39,62,163)" stroke="rgb(39,62,163)" stroke-width="1" opacity="0.5098039215686274" d="M 65.5 357 L 75 357.5 L 65.5 358 L 65.5 357 Z " /><path fill="rgb(39,62,163)" stroke="rgb(39,62,163)" stroke-width="1" opacity="0.5098039215686274" d="M 100.5 359 Q 114.4 391.6 139.5 413 L 146 415.5 L 142.5 416 L 124 398.5 Q 108 381.6 100.5 359 Z " /><path fill="rgb(39,62,163)" stroke="rgb(39,62,163)" stroke-width="1" opacity="0.5098039215686274" d="M 139.5 363 L 144 364.5 L 140.5 365 L 139 364.5 L 138.5 366 L 138 364.5 L 139.5 363 Z " /><path fill="rgb(39,62,163)" stroke="rgb(39,62,163)" stroke-width="1" opacity="0.5098039215686274" d="M 145.5 365 L 149 365.5 L 145.5 366 L 145.5 365 Z " /><path fill="rgb(39,62,163)" stroke="rgb(39,62,163)" stroke-width="1" opacity="0.5098039215686274" d="M 151.5 366 L 162.5 366 L 248.5 452 L 255 456.5 L 253.5 456 L 248.5 453 L 162.5 367 L 151.5 367 L 151.5 366 Z " /><path fill="rgb(39,62,163)" stroke="rgb(39,62,163)" stroke-width="1" opacity="0.5098039215686274" d="M 139.5 370 L 140 375.5 L 139 375.5 L 139.5 370 Z " /><path fill="rgb(39,62,163)" stroke="rgb(39,62,163)" stroke-width="1" opacity="0.5098039215686274" d="M 140.5 378 L 141 381.5 L 140 381.5 L 140.5 378 Z " /><path fill="rgb(39,62,163)" stroke="rgb(39,62,163)" stroke-width="1" opacity="0.5098039215686274" d="M 141.5 383 L 144 393.5 L 143 393.5 L 141.5 383 Z " /><path fill="rgb(39,62,163)" stroke="rgb(39,62,163)" stroke-width="1" opacity="0.5098039215686274" d="M 144.5 395 L 146 399.5 L 145 399.5 L 144.5 395 Z " /><path fill="rgb(39,62,163)" stroke="rgb(39,62,163)" stroke-width="1" opacity="0.5098039215686274" d="M 147.5 404 L 149 407.5 L 148 407.5 L 147.5 404 Z " /><path fill="rgb(39,62,163)" stroke="rgb(39,62,163)" stroke-width="1" opacity="0.5098039215686274" d="M 149.5 409 L 150 411.5 L 147.5 415 L 148 413.5 L 149.5 409 Z " /><path fill="rgb(39,62,163)" stroke="rgb(39,62,163)" stroke-width="1" opacity="0.5098039215686274" d="M 258.5 458 L 266 460.5 L 263.5 461 L 258.5 459 L 258.5 458 Z " /><path fill="rgb(39,62,163)" stroke="rgb(39,62,163)" stroke-width="1" opacity="0.5098039215686274" d="M 268.5 461 L 280 461.5 L 268.5 462 L 268.5 461 Z " /><path fill="rgb(39,64,163)" stroke="rgb(39,64,163)" stroke-width="1" opacity="0.996078431372549" d="M 165.5 51 L 193.5 51 L 222.5 57 L 247.5 68 L 274.5 87 Q 294.1 68.1 322.5 58 L 336.5 54 L 346.5 52 L 353.5 52 L 354.5 51 L 381.5 51 L 410.5 57 L 437.5 69 Q 456.6 80.4 471 96.5 Q 486.4 113.6 496 136.5 L 504 164.5 L 506 193.5 L 505 194.5 L 505 205.5 L 501 225.5 Q 495.7 243.7 487 258.5 L 465 286.5 L 423.5 328 L 305 445.5 L 300.5 451 Q 294.1 457.1 284.5 460 Q 277.4 462.4 266.5 461 Q 255.5 458.5 248.5 452 L 162.5 366 L 149.5 366 L 139.5 363 L 138 365.5 L 139 366.5 L 139 375.5 L 141 386.5 L 144 397.5 L 149 408.5 L 149 411.5 L 146.5 415 Q 141.2 415.8 139.5 413 L 125 398.5 Q 106.4 377.8 97 349 L 83.5 355 L 75.5 357 L 65.5 357 L 64.5 358 L 63.5 357 L 50.5 356 L 37.5 351 Q 26 344.6 18 334.5 L 9 317.5 L 7 309.5 L 6 296.5 L 7 295.5 L 7 287.5 L 10 277.5 Q 15.8 263.3 26.5 254 L 38.5 246 L 47.5 243 L 51.5 243 L 53 241.5 L 45 217.5 L 45 212.5 L 43 205.5 L 42 182.5 L 43 181.5 L 43 171.5 L 44 170.5 L 45 159.5 L 54 131.5 Q 67.2 103.2 89.5 84 Q 105.5 70 126.5 61 L 140.5 56 L 165.5 51 Z M 173 60 L 172 61 L 163 61 L 152 63 L 128 71 Q 106 81 90 97 Q 72 115 61 140 L 54 163 L 53 175 L 52 176 L 52 201 Q 55 202 53 209 Q 56 227 63 241 L 93 241 L 94 242 L 104 242 L 105 243 L 108 243 L 121 232 L 135 228 Q 146 204 163 185 Q 170 176 181 171 L 194 167 Q 200 169 202 166 L 216 167 L 224 169 L 242 179 Q 253 188 259 202 L 263 216 L 263 230 L 278 231 L 279 232 L 289 232 L 290 233 L 302 233 L 303 234 L 332 235 L 333 236 L 357 236 L 358 237 L 434 237 L 435 236 L 458 236 L 459 235 L 488 234 L 494 214 L 495 201 L 496 200 L 496 177 L 492 155 Q 484 126 467 107 Q 452 88 431 76 L 408 66 L 392 62 L 377 61 L 376 60 L 351 61 L 326 67 Q 296 78 276 99 L 271 98 Q 261 87 248 79 L 228 69 L 213 64 L 198 61 L 173 60 Z M 197 176 L 189 178 L 179 183 Q 158 201 146 228 Q 154 228 160 233 L 163 233 L 187 216 L 204 210 Q 222 209 231 218 Q 242 226 245 244 L 245 252 L 244 253 L 246 253 Q 251 245 254 234 L 254 218 Q 252 205 245 197 Q 236 184 221 178 L 213 176 L 197 176 Z M 202 220 L 189 226 L 168 241 L 173 251 L 173 264 L 170 272 Q 176 274 187 273 L 188 274 L 205 274 L 206 273 L 215 273 L 224 271 Q 232 265 235 255 L 235 242 L 229 230 L 217 221 Q 211 219 202 220 Z M 135 237 L 120 244 Q 110 250 107 264 L 107 270 L 112 280 L 124 286 Q 134 287 142 285 L 154 278 Q 161 272 164 261 Q 165 252 162 248 Q 156 235 135 237 Z M 263 239 L 258 251 L 252 261 Q 244 272 230 279 Q 238 288 242 300 L 249 300 L 250 301 L 265 301 L 266 302 L 284 302 L 285 303 L 311 303 L 312 304 L 401 304 L 402 303 L 428 303 Q 429 300 436 302 L 467 271 L 483 246 L 483 243 L 482 244 L 467 244 L 466 245 L 412 246 L 411 247 L 325 245 L 324 244 L 309 244 L 308 243 L 274 241 L 263 239 Z M 63 250 L 44 254 L 31 263 Q 19 273 16 291 Q 14 303 17 312 L 26 330 Q 37 344 58 348 L 66 348 L 60 344 Q 49 336 45 322 Q 44 310 46 303 L 53 290 Q 60 281 72 277 L 97 268 L 98 267 Q 98 257 101 252 L 99 251 L 87 251 L 86 250 L 63 250 Z M 98 277 L 67 290 Q 57 296 54 310 Q 53 325 60 332 Q 66 340 79 342 L 86 342 L 94 339 Q 112 321 124 296 Q 114 294 109 289 L 100 279 Q 101 276 98 277 Z M 164 281 L 164 283 L 170 286 Q 191 303 198 334 Q 197 338 200 337 Q 207 328 210 314 L 214 309 L 217 309 L 232 320 L 245 333 L 237 309 L 222 283 L 216 283 L 215 284 L 190 284 L 189 283 L 178 283 L 177 282 Q 168 283 164 281 Z M 156 288 L 146 294 Q 147 326 163 344 L 177 355 L 179 359 L 178 363 L 175 365 L 257 446 L 271 452 Q 284 452 292 446 L 425 312 L 415 312 L 414 313 L 381 313 L 380 314 L 298 313 L 297 312 L 276 312 L 275 311 L 259 311 L 258 310 L 248 310 L 256 336 L 258 347 L 258 356 L 255 358 L 251 357 L 234 336 L 219 322 L 212 336 L 205 346 L 199 352 L 193 353 L 190 351 Q 190 334 185 323 Q 180 310 171 301 L 156 288 Z M 136 295 L 117 328 L 105 343 L 106 349 L 114 367 L 128 388 L 133 392 L 129 370 L 129 356 L 130 353 L 133 352 L 147 356 L 162 357 L 151 344 L 144 332 L 138 314 L 137 297 L 136 295 Z " /></svg>