<svg width="512" height="512" version="1.1" xmlns="http://www.w3.org/2000/svg" desc="Created with imagetracer.js version 1.2.6" ><path fill="rgb(235,242,245)" stroke="rgb(235,242,245)" stroke-width="1" opacity="1" d="M 368.5 61 L 389.5 62 L 419.5 71 Q 446.2 82.8 464 103.5 Q 479.3 120.2 488 143.5 L 495 171.5 L 496 194.5 L 495 195.5 L 495 205.5 L 493 216.5 L 488 233 L 482.5 234 L 453 235 L 457 222.5 L 460 207.5 Q 458.3 201.3 461 199.5 L 461 176.5 L 456 150.5 L 444 122.5 Q 431.7 101.3 413.5 86 L 393.5 72 Q 382.7 65.3 368.5 62 L 368.5 61 Z " /><path fill="rgb(235,242,245)" stroke="rgb(235,242,245)" stroke-width="1" opacity="1" d="M 289.5 87 L 288.5 89 L 289.5 87 Z " /><path fill="rgb(235,242,245)" stroke="rgb(235,242,245)" stroke-width="1" opacity="1" d="M 96.5 91 L 94.5 94 L 96.5 91 Z " /><path fill="rgb(235,242,245)" stroke="rgb(235,242,245)" stroke-width="1" opacity="1" d="M 283.5 92 L 280.5 96 L 283.5 92 Z " /><path fill="rgb(235,242,245)" stroke="rgb(235,242,245)" stroke-width="1" opacity="1" d="M 265.5 93 L 269.5 98 L 265.5 93 Z " /><path fill="rgb(235,242,245)" stroke="rgb(235,242,245)" stroke-width="1" opacity="1" d="M 84.5 103 L 82.5 106 L 84.5 103 Z " /><path fill="rgb(235,242,245)" stroke="rgb(235,242,245)" stroke-width="1" opacity="1" d="M 79.5 109 L 78.5 111 L 79.5 109 Z " /><path fill="rgb(235,242,245)" stroke="rgb(235,242,245)" stroke-width="1" opacity="1" d="M 76.5 113 L 75.5 115 L 76.5 113 Z " /><path fill="rgb(235,242,245)" stroke="rgb(235,242,245)" stroke-width="1" opacity="1" d="M 52.5 179 L 53 182.5 L 52 182.5 L 52.5 179 Z " /><path fill="rgb(235,242,245)" stroke="rgb(235,242,245)" stroke-width="1" opacity="1" d="M 242.5 179 L 244.5 182 L 242.5 179 Z " /><path fill="rgb(235,242,245)" stroke="rgb(235,242,245)" stroke-width="1" opacity="1" d="M 247.5 184 L 250.5 188 L 247.5 184 Z " /><path fill="rgb(235,242,245)" stroke="rgb(235,242,245)" stroke-width="1" opacity="1" d="M 252.5 190 L 253.5 192 L 252.5 190 Z " /><path fill="rgb(235,242,245)" stroke="rgb(235,242,245)" stroke-width="1" opacity="1" d="M 156.5 192 L 155.5 194 L 156.5 192 Z " /><path fill="rgb(235,242,245)" stroke="rgb(235,242,245)" stroke-width="1" opacity="1" d="M 52.5 193 L 53 196.5 L 52 196.5 L 52.5 193 Z " /><path fill="rgb(235,242,245)" stroke="rgb(235,242,245)" stroke-width="1" opacity="1" d="M 151.5 199 L 150.5 201 L 151.5 199 Z " /><path fill="rgb(235,242,245)" stroke="rgb(235,242,245)" stroke-width="1" opacity="1" d="M 293.5 232 L 296 232.5 L 293.5 233 L 293.5 232 Z " /><path fill="rgb(235,242,245)" stroke="rgb(235,242,245)" stroke-width="1" opacity="1" d="M 306.5 233 L 309 233.5 L 306.5 234 L 306.5 233 Z " /><path fill="rgb(235,242,245)" stroke="rgb(235,242,245)" stroke-width="1" opacity="1" d="M 321.5 234 L 324 234.5 L 321.5 235 L 321.5 234 Z " /><path fill="rgb(235,242,245)" stroke="rgb(235,242,245)" stroke-width="1" opacity="1" d="M 340.5 235 L 344 235.5 L 340.5 236 L 340.5 235 Z " /><path fill="rgb(235,242,245)" stroke="rgb(235,242,245)" stroke-width="1" opacity="1" d="M 446.5 235 L 450 235.5 L 446.5 236 L 446.5 235 Z " /><path fill="rgb(235,242,245)" stroke="rgb(235,242,245)" stroke-width="1" opacity="1" d="M 370.5 236 L 382 236.5 L 370.5 237 L 370.5 236 Z " /><path fill="rgb(235,242,245)" stroke="rgb(235,242,245)" stroke-width="1" opacity="1" d="M 408.5 236 L 421 236.5 L 408.5 237 L 408.5 236 Z " /><path fill="rgb(235,242,245)" stroke="rgb(235,242,245)" stroke-width="1" opacity="1" d="M 138.5 237 L 144 237.5 L 138.5 238 L 138.5 237 Z " /><path fill="rgb(235,242,245)" stroke="rgb(235,242,245)" stroke-width="1" opacity="1" d="M 63.5 240 L 67 240.5 L 63.5 241 L 63.5 240 Z " /><path fill="rgb(235,242,245)" stroke="rgb(235,242,245)" stroke-width="1" opacity="1" d="M 79.5 240 L 86 240.5 L 79.5 241 L 79.5 240 Z " /><path fill="rgb(235,242,245)" stroke="rgb(235,242,245)" stroke-width="1" opacity="1" d="M 156.5 242 L 159.5 246 L 156.5 242 Z " /><path fill="rgb(235,242,245)" stroke="rgb(235,242,245)" stroke-width="1" opacity="1" d="M 228.5 265 L 224.5 270 L 228.5 265 Z " /><path fill="rgb(235,242,245)" stroke="rgb(235,242,245)" stroke-width="1" opacity="1" d="M 157.5 272 L 151.5 279 L 157.5 272 Z " /><path fill="rgb(235,242,245)" stroke="rgb(235,242,245)" stroke-width="1" opacity="1" d="M 111.5 277 L 115.5 282 L 111.5 277 Z " /><path fill="rgb(235,242,245)" stroke="rgb(235,242,245)" stroke-width="1" opacity="1" d="M 103.5 284 L 107.5 289 L 103.5 284 Z " /><path fill="rgb(235,242,245)" stroke="rgb(235,242,245)" stroke-width="1" opacity="1" d="M 64.5 292 L 60.5 297 L 64.5 292 Z " /><path fill="rgb(235,242,245)" stroke="rgb(235,242,245)" stroke-width="1" opacity="1" d="M 161.5 292 L 162.5 294 L 161.5 292 Z " /><path fill="rgb(235,242,245)" stroke="rgb(235,242,245)" stroke-width="1" opacity="1" d="M 146.5 298 L 147 301.5 L 146 301.5 L 146.5 298 Z " /><path fill="rgb(235,242,245)" stroke="rgb(235,242,245)" stroke-width="1" opacity="1" d="M 172.5 303 L 173.5 305 L 172.5 303 Z " /><path fill="rgb(235,242,245)" stroke="rgb(235,242,245)" stroke-width="1" opacity="1" d="M 250.5 310 L 253 310.5 L 250.5 311 L 250.5 310 Z " /><path fill="rgb(235,242,245)" stroke="rgb(235,242,245)" stroke-width="1" opacity="1" d="M 266.5 311 L 269 311.5 L 266.5 312 L 266.5 311 Z " /><path fill="rgb(235,242,245)" stroke="rgb(235,242,245)" stroke-width="1" opacity="1" d="M 54.5 312 L 55 315.5 L 54 315.5 L 54.5 312 Z " /><path fill="rgb(235,242,245)" stroke="rgb(235,242,245)" stroke-width="1" opacity="1" d="M 285.5 312 L 289 312.5 L 285.5 313 L 285.5 312 Z " /><path fill="rgb(235,242,245)" stroke="rgb(235,242,245)" stroke-width="1" opacity="1" d="M 310.5 313 L 316 313.5 L 310.5 314 L 310.5 313 Z " /><path fill="rgb(235,242,245)" stroke="rgb(235,242,245)" stroke-width="1" opacity="1" d="M 396.5 313 L 424 313.5 L 293.5 444 L 280.5 451 L 267.5 451 L 258 446.5 L 390.5 314 Q 395.2 315.2 396.5 313 Z " /><path fill="rgb(235,242,245)" stroke="rgb(235,242,245)" stroke-width="1" opacity="1" d="M 108.5 320 L 107.5 322 L 108.5 320 Z " /><path fill="rgb(235,242,245)" stroke="rgb(235,242,245)" stroke-width="1" opacity="1" d="M 218.5 322 L 219.5 324 L 218.5 322 Z " /><path fill="rgb(235,242,245)" stroke="rgb(235,242,245)" stroke-width="1" opacity="1" d="M 223.5 326 L 225.5 329 L 223.5 326 Z " /><path fill="rgb(235,242,245)" stroke="rgb(235,242,245)" stroke-width="1" opacity="1" d="M 102.5 328 L 101.5 330 L 102.5 328 Z " /><path fill="rgb(235,242,245)" stroke="rgb(235,242,245)" stroke-width="1" opacity="1" d="M 158.5 336 L 159.5 338 L 158.5 336 Z " /><path fill="rgb(235,242,245)" stroke="rgb(235,242,245)" stroke-width="1" opacity="1" d="M 236.5 339 L 238.5 342 L 236.5 339 Z " /><path fill="rgb(235,242,245)" stroke="rgb(235,242,245)" stroke-width="1" opacity="1" d="M 161.5 340 L 162.5 342 L 161.5 340 Z " /><path fill="rgb(235,242,245)" stroke="rgb(235,242,245)" stroke-width="1" opacity="1" d="M 241.5 345 L 242.5 347 L 241.5 345 Z " /><path fill="rgb(235,242,245)" stroke="rgb(235,242,245)" stroke-width="1" opacity="1" d="M 204.5 346 L 200.5 351 L 204.5 346 Z " /><path fill="rgb(235,242,245)" stroke="rgb(235,242,245)" stroke-width="1" opacity="1" d="M 244.5 349 L 245.5 351 L 244.5 349 Z " /><path fill="rgb(235,242,245)" stroke="rgb(235,242,245)" stroke-width="1" opacity="1" d="M 175.5 364 L 255.5 445 L 175.5 364 Z " /><path fill="rgb(254,254,254)" stroke="rgb(254,254,254)" stroke-width="1" opacity="1" d="M 380.5 66 L 384 67.5 L 382.5 68 L 380.5 66 Z " /><path fill="rgb(254,254,254)" stroke="rgb(254,254,254)" stroke-width="1" opacity="1" d="M 391.5 71 L 395 73.5 L 393.5 73 L 391.5 71 Z " /><path fill="rgb(254,254,254)" stroke="rgb(254,254,254)" stroke-width="1" opacity="1" d="M 398.5 75 L 399.5 77 L 398.5 75 Z " /><path fill="rgb(254,254,254)" stroke="rgb(254,254,254)" stroke-width="1" opacity="1" d="M 401.5 77 L 402.5 79 L 401.5 77 Z " /><path fill="rgb(254,254,254)" stroke="rgb(254,254,254)" stroke-width="1" opacity="1" d="M 404.5 79 L 406.5 82 L 404.5 79 Z " /><path fill="rgb(254,254,254)" stroke="rgb(254,254,254)" stroke-width="1" opacity="1" d="M 408.5 82 L 410.5 85 L 408.5 82 Z " /><path fill="rgb(254,254,254)" stroke="rgb(254,254,254)" stroke-width="1" opacity="1" d="M 413.5 86 L 418.5 92 L 413.5 86 Z " /><path fill="rgb(254,254,254)" stroke="rgb(254,254,254)" stroke-width="1" opacity="1" d="M 93.5 94 L 91.5 97 L 93.5 94 Z " /><path fill="rgb(254,254,254)" stroke="rgb(254,254,254)" stroke-width="1" opacity="1" d="M 279.5 96 L 278.5 98 L 279.5 96 Z " /><path fill="rgb(254,254,254)" stroke="rgb(254,254,254)" stroke-width="1" opacity="1" d="M 424.5 97 L 429.5 103 L 424.5 97 Z " /><path fill="rgb(254,254,254)" stroke="rgb(254,254,254)" stroke-width="1" opacity="1" d="M 87.5 100 L 85.5 103 L 87.5 100 Z " /><path fill="rgb(254,254,254)" stroke="rgb(254,254,254)" stroke-width="1" opacity="1" d="M 431.5 105 L 433.5 108 L 431.5 105 Z " /><path fill="rgb(254,254,254)" stroke="rgb(254,254,254)" stroke-width="1" opacity="1" d="M 435.5 110 L 436.5 112 L 435.5 110 Z " /><path fill="rgb(254,254,254)" stroke="rgb(254,254,254)" stroke-width="1" opacity="1" d="M 437.5 113 L 438.5 115 L 437.5 113 Z " /><path fill="rgb(254,254,254)" stroke="rgb(254,254,254)" stroke-width="1" opacity="1" d="M 439.5 116 L 440.5 118 L 439.5 116 Z " /><path fill="rgb(254,254,254)" stroke="rgb(254,254,254)" stroke-width="1" opacity="1" d="M 442.5 121 L 443.5 123 L 442.5 121 Z " /><path fill="rgb(254,254,254)" stroke="rgb(254,254,254)" stroke-width="1" opacity="1" d="M 458.5 162 L 459 164.5 L 458 164.5 L 458.5 162 Z " /><path fill="rgb(254,254,254)" stroke="rgb(254,254,254)" stroke-width="1" opacity="1" d="M 459.5 168 L 460 171.5 L 459 171.5 L 459.5 168 Z " /><path fill="rgb(254,254,254)" stroke="rgb(254,254,254)" stroke-width="1" opacity="1" d="M 460.5 176 L 461 185.5 L 460 185.5 L 460.5 176 Z " /><path fill="rgb(254,254,254)" stroke="rgb(254,254,254)" stroke-width="1" opacity="1" d="M 168.5 178 L 166.5 181 L 168.5 178 Z " /><path fill="rgb(254,254,254)" stroke="rgb(254,254,254)" stroke-width="1" opacity="1" d="M 164.5 182 L 162.5 185 L 164.5 182 Z " /><path fill="rgb(254,254,254)" stroke="rgb(254,254,254)" stroke-width="1" opacity="1" d="M 460.5 190 L 461 199.5 L 460 199.5 L 460.5 190 Z " /><path fill="rgb(254,254,254)" stroke="rgb(254,254,254)" stroke-width="1" opacity="1" d="M 459.5 205 L 460 207.5 L 459 207.5 L 459.5 205 Z " /><path fill="rgb(254,254,254)" stroke="rgb(254,254,254)" stroke-width="1" opacity="1" d="M 458.5 211 L 459 213.5 L 458 213.5 L 458.5 211 Z " /><path fill="rgb(254,254,254)" stroke="rgb(254,254,254)" stroke-width="1" opacity="1" d="M 146.5 293 L 147 295.5 L 146 295.5 L 146.5 293 Z " /><path fill="rgb(254,254,254)" stroke="rgb(254,254,254)" stroke-width="1" opacity="1" d="M 163.5 294 L 164.5 296 L 163.5 294 Z " /><path fill="rgb(254,254,254)" stroke="rgb(254,254,254)" stroke-width="1" opacity="1" d="M 389.5 314 L 258.5 446 L 389.5 314 Z " /><path fill="rgb(254,254,254)" stroke="rgb(254,254,254)" stroke-width="1" opacity="1" d="M 226.5 329 L 227.5 331 L 226.5 329 Z " /><path fill="rgb(254,254,254)" stroke="rgb(254,254,254)" stroke-width="1" opacity="1" d="M 234.5 337 L 235.5 339 L 234.5 337 Z " /><path fill="rgb(254,254,254)" stroke="rgb(254,254,254)" stroke-width="1" opacity="1" d="M 199.5 351 L 198.5 353 L 199.5 351 Z " /><path fill="rgb(0,0,0)" stroke="rgb(0,0,0)" stroke-width="1" opacity="0" d="M 0 0 L 512 0 L 512 512 L 0 512 L 0 0 Z M 164 51 L 140 56 L 124 62 Q 106 70 92 82 Q 73 98 60 120 L 49 144 L 44 164 L 43 178 L 42 179 L 42 199 L 43 200 L 44 214 L 48 230 L 53 242 Q 37 244 28 253 Q 10 266 6 293 Q 6 324 22 340 Q 31 349 44 354 L 61 358 Q 84 358 97 349 Q 105 377 123 397 L 143 415 Q 148 416 149 413 L 149 409 L 141 386 L 139 364 L 149 366 L 163 366 L 250 453 L 266 461 L 282 461 Q 292 459 299 453 L 318 433 L 410 342 L 469 283 L 482 267 Q 492 253 498 236 L 503 219 L 505 208 L 505 200 L 506 199 L 506 179 L 501 151 Q 492 120 473 99 Q 456 79 433 66 L 405 55 L 384 51 L 352 51 L 332 55 Q 297 65 275 87 Q 260 74 243 65 L 217 55 L 197 51 L 164 51 Z " /><path fill="rgb(255,255,255)" stroke="rgb(255,255,255)" stroke-width="1" opacity="1" d="M 167.5 61 L 192.5 61 Q 194 63.5 199.5 62 L 228.5 70 L 244.5 78 Q 259.5 86.5 270.5 99 L 274.5 100 L 298.5 81 L 319.5 70 L 342.5 63 L 354.5 62 L 355.5 61 L 365.5 61 Q 401.5 72 424 96.5 Q 441.7 114.8 452 140.5 L 459 165.5 L 461 189.5 L 460 190.5 L 460 204.5 L 459 205.5 L 458 216.5 L 453 233.5 L 451.5 235 Q 446.7 233.7 445.5 236 L 382.5 237 L 381.5 236 L 324.5 235 L 323.5 234 L 309.5 234 L 308.5 233 L 296.5 233 L 295.5 232 L 264 230 L 264 217.5 L 260 202.5 Q 253.4 187.6 241.5 178 L 222.5 168 L 213.5 166 L 195.5 166 Q 173.3 169.8 162 184.5 Q 145.8 203.6 135 227 Q 116.9 229.7 107.5 242 L 100.5 242 L 99.5 241 L 86.5 241 L 85.5 240 L 63 240 L 55 215.5 L 53 204.5 L 52 184.5 L 53 183.5 L 53 172.5 L 56 156.5 L 63 136.5 Q 73.5 113.5 90.5 97 Q 104.4 83.4 122.5 74 L 142.5 66 L 167.5 61 Z " /><path fill="rgb(255,255,255)" stroke="rgb(255,255,255)" stroke-width="1" opacity="1" d="M 204.5 220 Q 221.9 220.1 229 230.5 Q 235.4 237.6 235 251.5 Q 232.6 264.1 223.5 270 L 210.5 273 L 179.5 273 L 178.5 272 L 171 272 L 174 261.5 L 174 252.5 L 173 247.5 L 169 240.5 L 191.5 225 L 204.5 220 Z " /><path fill="rgb(255,255,255)" stroke="rgb(255,255,255)" stroke-width="1" opacity="1" d="M 134.5 238 Q 154.1 235.4 160 246.5 Q 164.5 251 163 261.5 Q 159.6 273.1 150.5 279 Q 142.8 286.3 127.5 286 Q 116.2 284.3 111 276.5 Q 107 272.1 108 262.5 Q 111.4 251.4 119.5 245 L 134.5 238 Z " /><path fill="rgb(255,255,255)" stroke="rgb(255,255,255)" stroke-width="1" opacity="1" d="M 96.5 278 Q 100.9 276.5 100 279.5 L 108.5 290 L 123 296.5 Q 111.3 320.3 93.5 338 Q 88.3 342.8 76.5 341 Q 65.6 338.4 60 330.5 L 55 319.5 L 55 307.5 Q 58.1 296.6 66.5 291 L 96.5 278 Z " /><path fill="rgb(255,255,255)" stroke="rgb(255,255,255)" stroke-width="1" opacity="1" d="M 154.5 289 L 159.5 291 L 171 301.5 L 183 319.5 L 189 339.5 L 189 350.5 L 192.5 354 L 198.5 353 L 205 346.5 Q 213.8 336.8 218.5 323 L 234 336.5 L 250.5 358 Q 256.5 359.5 258 356.5 L 259 350.5 L 254 325.5 L 248 310.5 L 249.5 310 L 250.5 311 L 283.5 312 L 284.5 313 L 308.5 313 L 309.5 314 L 389 314.5 L 257.5 446 L 176 364.5 L 179 362.5 Q 180.5 355.5 176.5 354 L 163 342.5 Q 154.8 332.7 150 319.5 L 147 307.5 Q 148.5 300 146 296.5 L 147 293 L 154.5 289 Z " /><path fill="rgb(119,181,184)" stroke="rgb(119,181,184)" stroke-width="1" opacity="1" d="M 171.5 60 L 189 60.5 L 171.5 61 L 171.5 60 Z " /><path fill="rgb(119,181,184)" stroke="rgb(119,181,184)" stroke-width="1" opacity="1" d="M 360.5 60 L 376 60.5 L 360.5 61 L 360.5 60 Z " /><path fill="rgb(119,181,184)" stroke="rgb(119,181,184)" stroke-width="1" opacity="1" d="M 161.5 61 L 165 61.5 L 161.5 62 L 161.5 61 Z " /><path fill="rgb(119,181,184)" stroke="rgb(119,181,184)" stroke-width="1" opacity="1" d="M 195.5 61 L 198 61.5 L 195.5 62 L 195.5 61 Z " /><path fill="rgb(119,181,184)" stroke="rgb(119,181,184)" stroke-width="1" opacity="1" d="M 350.5 61 L 353 61.5 L 350.5 62 L 350.5 61 Z " /><path fill="rgb(119,181,184)" stroke="rgb(119,181,184)" stroke-width="1" opacity="1" d="M 383.5 61 L 386 61.5 L 383.5 62 L 383.5 61 Z " /><path fill="rgb(119,181,184)" stroke="rgb(119,181,184)" stroke-width="1" opacity="1" d="M 155.5 62 L 158 62.5 L 155.5 63 L 155.5 62 Z " /><path fill="rgb(119,181,184)" stroke="rgb(119,181,184)" stroke-width="1" opacity="1" d="M 253.5 83 L 254.5 85 L 253.5 83 Z " /><path fill="rgb(119,181,184)" stroke="rgb(119,181,184)" stroke-width="1" opacity="1" d="M 103.5 85 L 102.5 87 L 103.5 85 Z " /><path fill="rgb(119,181,184)" stroke="rgb(119,181,184)" stroke-width="1" opacity="1" d="M 291.5 85 L 290.5 87 L 291.5 85 Z " /><path fill="rgb(119,181,184)" stroke="rgb(119,181,184)" stroke-width="1" opacity="1" d="M 444.5 85 L 446.5 88 L 444.5 85 Z " /><path fill="rgb(119,181,184)" stroke="rgb(119,181,184)" stroke-width="1" opacity="1" d="M 257.5 86 L 258.5 88 L 257.5 86 Z " /><path fill="rgb(119,181,184)" stroke="rgb(119,181,184)" stroke-width="1" opacity="1" d="M 99.5 88 L 97.5 91 L 99.5 88 Z " /><path fill="rgb(119,181,184)" stroke="rgb(119,181,184)" stroke-width="1" opacity="1" d="M 261.5 89 L 264.5 93 L 261.5 89 Z " /><path fill="rgb(119,181,184)" stroke="rgb(119,181,184)" stroke-width="1" opacity="1" d="M 286.5 89 L 284.5 92 L 286.5 89 Z " /><path fill="rgb(119,181,184)" stroke="rgb(119,181,184)" stroke-width="1" opacity="1" d="M 449.5 89 L 451.5 92 L 449.5 89 Z " /><path fill="rgb(119,181,184)" stroke="rgb(119,181,184)" stroke-width="1" opacity="1" d="M 90.5 96 L 87.5 100 L 90.5 96 Z " /><path fill="rgb(119,181,184)" stroke="rgb(119,181,184)" stroke-width="1" opacity="1" d="M 464.5 104 L 466.5 107 L 464.5 104 Z " /><path fill="rgb(119,181,184)" stroke="rgb(119,181,184)" stroke-width="1" opacity="1" d="M 81.5 106 L 80.5 108 L 81.5 106 Z " /><path fill="rgb(119,181,184)" stroke="rgb(119,181,184)" stroke-width="1" opacity="1" d="M 469.5 110 L 470.5 112 L 469.5 110 Z " /><path fill="rgb(119,181,184)" stroke="rgb(119,181,184)" stroke-width="1" opacity="1" d="M 77.5 111 L 76.5 113 L 77.5 111 Z " /><path fill="rgb(119,181,184)" stroke="rgb(119,181,184)" stroke-width="1" opacity="1" d="M 493.5 162 L 494 164.5 L 493 164.5 L 493.5 162 Z " /><path fill="rgb(119,181,184)" stroke="rgb(119,181,184)" stroke-width="1" opacity="1" d="M 197.5 166 L 202 166.5 L 197.5 167 L 197.5 166 Z " /><path fill="rgb(119,181,184)" stroke="rgb(119,181,184)" stroke-width="1" opacity="1" d="M 207.5 166 L 212 166.5 L 207.5 167 L 207.5 166 Z " /><path fill="rgb(119,181,184)" stroke="rgb(119,181,184)" stroke-width="1" opacity="1" d="M 53.5 167 L 54 169.5 L 53 169.5 L 53.5 167 Z " /><path fill="rgb(119,181,184)" stroke="rgb(119,181,184)" stroke-width="1" opacity="1" d="M 494.5 168 L 495 170.5 L 494 170.5 L 494.5 168 Z " /><path fill="rgb(119,181,184)" stroke="rgb(119,181,184)" stroke-width="1" opacity="1" d="M 52.5 175 L 53 178.5 L 52 178.5 L 52.5 175 Z " /><path fill="rgb(119,181,184)" stroke="rgb(119,181,184)" stroke-width="1" opacity="1" d="M 171.5 176 L 169.5 179 L 171.5 176 Z " /><path fill="rgb(119,181,184)" stroke="rgb(119,181,184)" stroke-width="1" opacity="1" d="M 495.5 176 L 496 180.5 L 495 180.5 L 495.5 176 Z " /><path fill="rgb(119,181,184)" stroke="rgb(119,181,184)" stroke-width="1" opacity="1" d="M 239.5 177 L 240.5 179 L 239.5 177 Z " /><path fill="rgb(119,181,184)" stroke="rgb(119,181,184)" stroke-width="1" opacity="1" d="M 245.5 182 L 246.5 184 L 245.5 182 Z " /><path fill="rgb(119,181,184)" stroke="rgb(119,181,184)" stroke-width="1" opacity="1" d="M 163.5 184 L 160.5 188 L 163.5 184 Z " /><path fill="rgb(119,181,184)" stroke="rgb(119,181,184)" stroke-width="1" opacity="1" d="M 158.5 190 L 157.5 192 L 158.5 190 Z " /><path fill="rgb(119,181,184)" stroke="rgb(119,181,184)" stroke-width="1" opacity="1" d="M 253.5 192 L 254.5 194 L 253.5 192 Z " /><path fill="rgb(119,181,184)" stroke="rgb(119,181,184)" stroke-width="1" opacity="1" d="M 495.5 195 L 496 200.5 L 495 200.5 L 495.5 195 Z " /><path fill="rgb(119,181,184)" stroke="rgb(119,181,184)" stroke-width="1" opacity="1" d="M 52.5 197 L 53 201.5 L 52 201.5 L 52.5 197 Z " /><path fill="rgb(119,181,184)" stroke="rgb(119,181,184)" stroke-width="1" opacity="1" d="M 150.5 201 L 149.5 203 L 150.5 201 Z " /><path fill="rgb(119,181,184)" stroke="rgb(119,181,184)" stroke-width="1" opacity="1" d="M 53.5 206 L 54 208.5 L 53 208.5 L 53.5 206 Z " /><path fill="rgb(119,181,184)" stroke="rgb(119,181,184)" stroke-width="1" opacity="1" d="M 494.5 206 L 495 208.5 L 494 208.5 L 494.5 206 Z " /><path fill="rgb(119,181,184)" stroke="rgb(119,181,184)" stroke-width="1" opacity="1" d="M 263.5 219 L 264 229.5 L 263 229.5 L 263.5 219 Z " /><path fill="rgb(119,181,184)" stroke="rgb(119,181,184)" stroke-width="1" opacity="1" d="M 225.5 226 L 228.5 230 L 225.5 226 Z " /><path fill="rgb(119,181,184)" stroke="rgb(119,181,184)" stroke-width="1" opacity="1" d="M 268.5 230 L 272 230.5 L 268.5 231 L 268.5 230 Z " /><path fill="rgb(119,181,184)" stroke="rgb(119,181,184)" stroke-width="1" opacity="1" d="M 278.5 231 L 282 231.5 L 278.5 232 L 278.5 231 Z " /><path fill="rgb(119,181,184)" stroke="rgb(119,181,184)" stroke-width="1" opacity="1" d="M 289.5 232 L 293 232.5 L 289.5 233 L 289.5 232 Z " /><path fill="rgb(119,181,184)" stroke="rgb(119,181,184)" stroke-width="1" opacity="1" d="M 301.5 233 L 306 233.5 L 301.5 234 L 301.5 233 Z " /><path fill="rgb(119,181,184)" stroke="rgb(119,181,184)" stroke-width="1" opacity="1" d="M 483.5 233 L 488 233.5 L 483.5 234 L 483.5 233 Z " /><path fill="rgb(119,181,184)" stroke="rgb(119,181,184)" stroke-width="1" opacity="1" d="M 116.5 234 L 115.5 236 L 116.5 234 Z " /><path fill="rgb(119,181,184)" stroke="rgb(119,181,184)" stroke-width="1" opacity="1" d="M 176.5 234 L 175.5 236 L 176.5 234 Z " /><path fill="rgb(119,181,184)" stroke="rgb(119,181,184)" stroke-width="1" opacity="1" d="M 315.5 234 L 321 234.5 L 315.5 235 L 315.5 234 Z " /><path fill="rgb(119,181,184)" stroke="rgb(119,181,184)" stroke-width="1" opacity="1" d="M 468.5 234 L 475 234.5 L 468.5 235 L 468.5 234 Z " /><path fill="rgb(119,181,184)" stroke="rgb(119,181,184)" stroke-width="1" opacity="1" d="M 331.5 235 L 340 235.5 L 331.5 236 L 331.5 235 Z " /><path fill="rgb(119,181,184)" stroke="rgb(119,181,184)" stroke-width="1" opacity="1" d="M 450.5 235 L 458 235.5 L 450.5 236 L 450.5 235 Z " /><path fill="rgb(119,181,184)" stroke="rgb(119,181,184)" stroke-width="1" opacity="1" d="M 173.5 236 L 172.5 238 L 173.5 236 Z " /><path fill="rgb(119,181,184)" stroke="rgb(119,181,184)" stroke-width="1" opacity="1" d="M 355.5 236 L 370 236.5 L 355.5 237 L 355.5 236 Z " /><path fill="rgb(119,181,184)" stroke="rgb(119,181,184)" stroke-width="1" opacity="1" d="M 421.5 236 L 435 236.5 L 421.5 237 L 421.5 236 Z " /><path fill="rgb(119,181,184)" stroke="rgb(119,181,184)" stroke-width="1" opacity="1" d="M 112.5 237 L 107.5 243 L 104 242.5 Q 110.9 242.4 112.5 237 Z " /><path fill="rgb(119,181,184)" stroke="rgb(119,181,184)" stroke-width="1" opacity="1" d="M 135.5 237 L 138 237.5 L 135.5 238 L 135.5 237 Z " /><path fill="rgb(119,181,184)" stroke="rgb(119,181,184)" stroke-width="1" opacity="1" d="M 169.5 239 L 168.5 241 L 169.5 239 Z " /><path fill="rgb(119,181,184)" stroke="rgb(119,181,184)" stroke-width="1" opacity="1" d="M 67.5 240 L 79 240.5 L 67.5 241 L 67.5 240 Z " /><path fill="rgb(119,181,184)" stroke="rgb(119,181,184)" stroke-width="1" opacity="1" d="M 262.5 240 L 277.5 241 L 278.5 242 L 288.5 242 L 289.5 243 L 300.5 243 L 301.5 244 L 332.5 245 L 333.5 246 L 356.5 246 L 357.5 247 L 432.5 247 L 433.5 246 L 457.5 246 L 458.5 245 L 482.5 244 L 482 245.5 Q 469.5 271.5 448.5 289 L 437 299.5 L 435.5 302 L 378.5 303 L 377.5 304 L 334.5 304 L 333.5 303 L 296.5 303 L 295.5 302 L 257.5 301 L 256.5 300 L 243.5 300 L 242 298.5 L 239 291.5 L 230 278.5 Q 243.1 273.1 251 262.5 L 257 253.5 L 262.5 240 Z " /><path fill="rgb(119,181,184)" stroke="rgb(119,181,184)" stroke-width="1" opacity="1" d="M 92.5 241 L 98 241.5 L 92.5 242 L 92.5 241 Z " /><path fill="rgb(119,181,184)" stroke="rgb(119,181,184)" stroke-width="1" opacity="1" d="M 122.5 242 L 121.5 244 L 122.5 242 Z " /><path fill="rgb(119,181,184)" stroke="rgb(119,181,184)" stroke-width="1" opacity="1" d="M 118.5 245 L 113.5 251 L 118.5 245 Z " /><path fill="rgb(119,181,184)" stroke="rgb(119,181,184)" stroke-width="1" opacity="1" d="M 173.5 253 L 174 259.5 L 173 259.5 L 173.5 253 Z " /><path fill="rgb(119,181,184)" stroke="rgb(119,181,184)" stroke-width="1" opacity="1" d="M 163.5 254 L 164 259.5 L 163 259.5 L 163.5 254 Z " /><path fill="rgb(119,181,184)" stroke="rgb(119,181,184)" stroke-width="1" opacity="1" d="M 230.5 263 L 229.5 265 L 230.5 263 Z " /><path fill="rgb(119,181,184)" stroke="rgb(119,181,184)" stroke-width="1" opacity="1" d="M 107.5 265 L 108 267.5 L 107 267.5 L 107.5 265 Z " /><path fill="rgb(119,181,184)" stroke="rgb(119,181,184)" stroke-width="1" opacity="1" d="M 172.5 272 L 177 272.5 L 172.5 273 L 172.5 272 Z " /><path fill="rgb(119,181,184)" stroke="rgb(119,181,184)" stroke-width="1" opacity="1" d="M 186.5 273 L 206 273.5 L 186.5 274 L 186.5 273 Z " /><path fill="rgb(119,181,184)" stroke="rgb(119,181,184)" stroke-width="1" opacity="1" d="M 156.5 288 L 157.5 290 L 156.5 288 Z " /><path fill="rgb(119,181,184)" stroke="rgb(119,181,184)" stroke-width="1" opacity="1" d="M 109.5 289 L 110.5 291 L 109.5 289 Z " /><path fill="rgb(119,181,184)" stroke="rgb(119,181,184)" stroke-width="1" opacity="1" d="M 66.5 290 L 65.5 292 L 66.5 290 Z " /><path fill="rgb(119,181,184)" stroke="rgb(119,181,184)" stroke-width="1" opacity="1" d="M 165.5 295 L 171.5 302 L 165.5 295 Z " /><path fill="rgb(119,181,184)" stroke="rgb(119,181,184)" stroke-width="1" opacity="1" d="M 146.5 302 L 147 304.5 L 146 304.5 L 146.5 302 Z " /><path fill="rgb(119,181,184)" stroke="rgb(119,181,184)" stroke-width="1" opacity="1" d="M 174.5 305 L 175.5 307 L 174.5 305 Z " /><path fill="rgb(119,181,184)" stroke="rgb(119,181,184)" stroke-width="1" opacity="1" d="M 54.5 309 L 55 311.5 L 54 311.5 L 54.5 309 Z " /><path fill="rgb(119,181,184)" stroke="rgb(119,181,184)" stroke-width="1" opacity="1" d="M 253.5 310 L 259 310.5 L 253.5 311 L 253.5 310 Z " /><path fill="rgb(119,181,184)" stroke="rgb(119,181,184)" stroke-width="1" opacity="1" d="M 269.5 311 L 277 311.5 L 269.5 312 L 269.5 311 Z " /><path fill="rgb(119,181,184)" stroke="rgb(119,181,184)" stroke-width="1" opacity="1" d="M 289.5 312 L 299 312.5 L 289.5 313 L 289.5 312 Z " /><path fill="rgb(119,181,184)" stroke="rgb(119,181,184)" stroke-width="1" opacity="1" d="M 414.5 312 L 425 312.5 L 414.5 313 L 414.5 312 Z " /><path fill="rgb(119,181,184)" stroke="rgb(119,181,184)" stroke-width="1" opacity="1" d="M 316.5 313 L 335 313.5 L 316.5 314 L 316.5 313 Z " /><path fill="rgb(119,181,184)" stroke="rgb(119,181,184)" stroke-width="1" opacity="1" d="M 372.5 313 L 396 313.5 L 372.5 314 L 372.5 313 Z " /><path fill="rgb(119,181,184)" stroke="rgb(119,181,184)" stroke-width="1" opacity="1" d="M 54.5 316 L 55 318.5 L 54 318.5 L 54.5 316 Z " /><path fill="rgb(119,181,184)" stroke="rgb(119,181,184)" stroke-width="1" opacity="1" d="M 107.5 322 L 106.5 324 L 107.5 322 Z " /><path fill="rgb(119,181,184)" stroke="rgb(119,181,184)" stroke-width="1" opacity="1" d="M 221.5 324 L 222.5 326 L 221.5 324 Z " /><path fill="rgb(119,181,184)" stroke="rgb(119,181,184)" stroke-width="1" opacity="1" d="M 104.5 326 L 103.5 328 L 104.5 326 Z " /><path fill="rgb(119,181,184)" stroke="rgb(119,181,184)" stroke-width="1" opacity="1" d="M 228.5 330 L 234.5 337 L 228.5 330 Z " /><path fill="rgb(119,181,184)" stroke="rgb(119,181,184)" stroke-width="1" opacity="1" d="M 60.5 331 L 64.5 336 L 60.5 331 Z " /><path fill="rgb(119,181,184)" stroke="rgb(119,181,184)" stroke-width="1" opacity="1" d="M 100.5 331 L 93.5 339 L 100.5 331 Z " /><path fill="rgb(119,181,184)" stroke="rgb(119,181,184)" stroke-width="1" opacity="1" d="M 188.5 335 L 189 337.5 L 188 337.5 L 188.5 335 Z " /><path fill="rgb(119,181,184)" stroke="rgb(119,181,184)" stroke-width="1" opacity="1" d="M 159.5 338 L 160.5 340 L 159.5 338 Z " /><path fill="rgb(119,181,184)" stroke="rgb(119,181,184)" stroke-width="1" opacity="1" d="M 209.5 339 L 208.5 341 L 209.5 339 Z " /><path fill="rgb(119,181,184)" stroke="rgb(119,181,184)" stroke-width="1" opacity="1" d="M 78.5 341 L 86 341.5 L 78.5 342 L 78.5 341 Z " /><path fill="rgb(119,181,184)" stroke="rgb(119,181,184)" stroke-width="1" opacity="1" d="M 239.5 342 L 240.5 344 L 239.5 342 Z " /><path fill="rgb(119,181,184)" stroke="rgb(119,181,184)" stroke-width="1" opacity="1" d="M 163.5 343 L 171.5 352 L 163.5 343 Z " /><path fill="rgb(119,181,184)" stroke="rgb(119,181,184)" stroke-width="1" opacity="1" d="M 189.5 343 L 190 348.5 L 189 348.5 L 189.5 343 Z " /><path fill="rgb(119,181,184)" stroke="rgb(119,181,184)" stroke-width="1" opacity="1" d="M 206.5 343 L 205.5 345 L 206.5 343 Z " /><path fill="rgb(119,181,184)" stroke="rgb(119,181,184)" stroke-width="1" opacity="1" d="M 257.5 344 L 258 346.5 L 257 346.5 L 257.5 344 Z " /><path fill="rgb(119,181,184)" stroke="rgb(119,181,184)" stroke-width="1" opacity="1" d="M 190.5 351 L 191.5 353 L 190.5 351 Z " /><path fill="rgb(119,181,184)" stroke="rgb(119,181,184)" stroke-width="1" opacity="1" d="M 174.5 353 L 175.5 355 L 174.5 353 Z " /><path fill="rgb(119,181,184)" stroke="rgb(119,181,184)" stroke-width="1" opacity="1" d="M 193.5 353 L 196 353.5 L 193.5 354 L 193.5 353 Z " /><path fill="rgb(119,181,184)" stroke="rgb(119,181,184)" stroke-width="1" opacity="1" d="M 292.5 444 L 290.5 447 L 292.5 444 Z " /><path fill="rgb(119,181,184)" stroke="rgb(119,181,184)" stroke-width="1" opacity="1" d="M 256.5 445 L 257.5 447 L 256.5 445 Z " /><path fill="rgb(119,181,184)" stroke="rgb(119,181,184)" stroke-width="1" opacity="1" d="M 270.5 451 L 278 451.5 L 270.5 452 L 270.5 451 Z " /><path fill="rgb(86,150,244)" stroke="rgb(86,150,244)" stroke-width="1" opacity="1" d="M 198.5 176 L 210.5 176 L 224.5 180 Q 235.6 185.4 243 194.5 L 253 214.5 L 254 231.5 Q 252 244 245.5 252 Q 245.6 229.9 233.5 220 Q 227.1 213.9 217.5 211 Q 210.8 208.7 200.5 210 L 189.5 214 L 160.5 233 Q 155.4 228.2 147 228 L 147 225.5 L 162 201.5 L 176.5 185 L 184.5 180 L 198.5 176 Z " /><path fill="rgb(86,150,244)" stroke="rgb(86,150,244)" stroke-width="1" opacity="1" d="M 333.5 245 L 336 245.5 L 333.5 246 L 333.5 245 Z " /><path fill="rgb(86,150,244)" stroke="rgb(86,150,244)" stroke-width="1" opacity="1" d="M 455.5 245 L 458 245.5 L 455.5 246 L 455.5 245 Z " /><path fill="rgb(86,150,244)" stroke="rgb(86,150,244)" stroke-width="1" opacity="1" d="M 357.5 246 L 362 246.5 L 357.5 247 L 357.5 246 Z " /><path fill="rgb(86,150,244)" stroke="rgb(86,150,244)" stroke-width="1" opacity="1" d="M 429.5 246 L 433 246.5 L 429.5 247 L 429.5 246 Z " /><path fill="rgb(86,150,244)" stroke="rgb(86,150,244)" stroke-width="1" opacity="1" d="M 56.5 251 L 94.5 251 L 101 252.5 Q 97 257.9 98 267 L 77.5 274 L 62.5 281 L 51 291.5 L 45 304.5 L 44 317.5 Q 46.7 334.3 57.5 343 L 65 347.5 L 59.5 348 Q 39.1 344.4 28 331.5 Q 20.6 322.9 17 310.5 L 16 292.5 Q 19.8 270.8 34.5 260 L 44.5 254 L 56.5 251 Z " /><path fill="rgb(86,150,244)" stroke="rgb(86,150,244)" stroke-width="1" opacity="1" d="M 165.5 282 L 182.5 283 L 183.5 284 L 217.5 284 L 220.5 283 Q 237.4 303.1 245 332.5 L 228.5 317 L 217.5 309 L 212.5 309 L 210 312.5 L 207 323.5 L 199.5 336 Q 196.1 336.9 198 331.5 Q 191.2 304.8 173.5 289 Q 166.8 286.2 165.5 282 Z " /><path fill="rgb(86,150,244)" stroke="rgb(86,150,244)" stroke-width="1" opacity="1" d="M 447.5 289 L 443.5 294 L 447.5 289 Z " /><path fill="rgb(86,150,244)" stroke="rgb(86,150,244)" stroke-width="1" opacity="1" d="M 135.5 296 Q 138.3 335.7 161 355.5 L 148.5 356 L 136.5 352 L 131.5 352 L 129 354.5 L 129 373.5 L 133 391.5 L 130 389.5 Q 113.5 370.5 105 343.5 L 120 323.5 L 135.5 296 Z " /><path fill="rgb(86,150,244)" stroke="rgb(86,150,244)" stroke-width="1" opacity="1" d="M 438.5 298 L 437.5 300 L 438.5 298 Z " /><path fill="rgb(86,150,244)" stroke="rgb(86,150,244)" stroke-width="1" opacity="1" d="M 272.5 301 L 275 301.5 L 272.5 302 L 272.5 301 Z " /><path fill="rgb(86,150,244)" stroke="rgb(86,150,244)" stroke-width="1" opacity="1" d="M 292.5 302 L 296 302.5 L 292.5 303 L 292.5 302 Z " /><path fill="rgb(86,150,244)" stroke="rgb(86,150,244)" stroke-width="1" opacity="1" d="M 416.5 302 L 419 302.5 L 416.5 303 L 416.5 302 Z " /><path fill="rgb(86,150,244)" stroke="rgb(86,150,244)" stroke-width="1" opacity="1" d="M 327.5 303 L 334 303.5 L 327.5 304 L 327.5 303 Z " /><path fill="rgb(86,150,244)" stroke="rgb(86,150,244)" stroke-width="1" opacity="1" d="M 378.5 303 L 388 303.5 L 378.5 304 L 378.5 303 Z " /><path fill="rgb(28,35,41)" stroke="rgb(28,35,41)" stroke-width="1" opacity="1" d="M 167.5 60 L 171 60.5 L 167.5 61 L 167.5 60 Z " /><path fill="rgb(28,35,41)" stroke="rgb(28,35,41)" stroke-width="1" opacity="1" d="M 189.5 60 L 193 60.5 L 189.5 61 L 189.5 60 Z " /><path fill="rgb(28,35,41)" stroke="rgb(28,35,41)" stroke-width="1" opacity="1" d="M 355.5 60 L 360 60.5 L 355.5 61 L 355.5 60 Z " /><path fill="rgb(28,35,41)" stroke="rgb(28,35,41)" stroke-width="1" opacity="1" d="M 376.5 60 L 381 60.5 L 376.5 61 L 376.5 60 Z " /><path fill="rgb(28,35,41)" stroke="rgb(28,35,41)" stroke-width="1" opacity="1" d="M 111.5 79 L 110.5 81 L 111.5 79 Z " /><path fill="rgb(28,35,41)" stroke="rgb(28,35,41)" stroke-width="1" opacity="1" d="M 108.5 81 L 107.5 83 L 108.5 81 Z " /><path fill="rgb(28,35,41)" stroke="rgb(28,35,41)" stroke-width="1" opacity="1" d="M 296.5 81 L 295.5 83 L 296.5 81 Z " /><path fill="rgb(28,35,41)" stroke="rgb(28,35,41)" stroke-width="1" opacity="1" d="M 105.5 83 L 104.5 85 L 105.5 83 Z " /><path fill="rgb(28,35,41)" stroke="rgb(28,35,41)" stroke-width="1" opacity="1" d="M 255.5 84 L 256.5 86 L 255.5 84 Z " /><path fill="rgb(28,35,41)" stroke="rgb(28,35,41)" stroke-width="1" opacity="1" d="M 101.5 86 L 100.5 88 L 101.5 86 Z " /><path fill="rgb(28,35,41)" stroke="rgb(28,35,41)" stroke-width="1" opacity="1" d="M 259.5 87 L 260.5 89 L 259.5 87 Z " /><path fill="rgb(28,35,41)" stroke="rgb(28,35,41)" stroke-width="1" opacity="1" d="M 288.5 87 L 287.5 89 L 288.5 87 Z " /><path fill="rgb(28,35,41)" stroke="rgb(28,35,41)" stroke-width="1" opacity="1" d="M 447.5 87 L 448.5 89 L 447.5 87 Z " /><path fill="rgb(28,35,41)" stroke="rgb(28,35,41)" stroke-width="1" opacity="1" d="M 96.5 90 L 91.5 96 L 96.5 90 Z " /><path fill="rgb(28,35,41)" stroke="rgb(28,35,41)" stroke-width="1" opacity="1" d="M 283.5 91 L 277.5 98 L 283.5 91 Z " /><path fill="rgb(28,35,41)" stroke="rgb(28,35,41)" stroke-width="1" opacity="1" d="M 452.5 91 L 464.5 104 L 452.5 91 Z " /><path fill="rgb(28,35,41)" stroke="rgb(28,35,41)" stroke-width="1" opacity="1" d="M 265.5 92 L 270.5 98 L 265.5 92 Z " /><path fill="rgb(28,35,41)" stroke="rgb(28,35,41)" stroke-width="1" opacity="1" d="M 86.5 100 L 82.5 105 L 86.5 100 Z " /><path fill="rgb(28,35,41)" stroke="rgb(28,35,41)" stroke-width="1" opacity="1" d="M 467.5 107 L 469.5 110 L 467.5 107 Z " /><path fill="rgb(28,35,41)" stroke="rgb(28,35,41)" stroke-width="1" opacity="1" d="M 79.5 108 L 78.5 110 L 79.5 108 Z " /><path fill="rgb(28,35,41)" stroke="rgb(28,35,41)" stroke-width="1" opacity="1" d="M 473.5 115 L 474.5 117 L 473.5 115 Z " /><path fill="rgb(28,35,41)" stroke="rgb(28,35,41)" stroke-width="1" opacity="1" d="M 475.5 118 L 476.5 120 L 475.5 118 Z " /><path fill="rgb(28,35,41)" stroke="rgb(28,35,41)" stroke-width="1" opacity="1" d="M 202.5 166 L 207 166.5 L 202.5 167 L 202.5 166 Z " /><path fill="rgb(28,35,41)" stroke="rgb(28,35,41)" stroke-width="1" opacity="1" d="M 52.5 172 L 53 174.5 L 52 174.5 L 52.5 172 Z " /><path fill="rgb(28,35,41)" stroke="rgb(28,35,41)" stroke-width="1" opacity="1" d="M 495.5 173 L 496 175.5 L 495 175.5 L 495.5 173 Z " /><path fill="rgb(28,35,41)" stroke="rgb(28,35,41)" stroke-width="1" opacity="1" d="M 173.5 175 L 172.5 177 L 173.5 175 Z " /><path fill="rgb(28,35,41)" stroke="rgb(28,35,41)" stroke-width="1" opacity="1" d="M 195.5 176 L 198 176.5 L 195.5 177 L 195.5 176 Z " /><path fill="rgb(28,35,41)" stroke="rgb(28,35,41)" stroke-width="1" opacity="1" d="M 211.5 176 L 214 176.5 L 211.5 177 L 211.5 176 Z " /><path fill="rgb(28,35,41)" stroke="rgb(28,35,41)" stroke-width="1" opacity="1" d="M 237.5 176 L 238.5 178 L 237.5 176 Z " /><path fill="rgb(28,35,41)" stroke="rgb(28,35,41)" stroke-width="1" opacity="1" d="M 168.5 179 L 164.5 184 L 168.5 179 Z " /><path fill="rgb(28,35,41)" stroke="rgb(28,35,41)" stroke-width="1" opacity="1" d="M 241.5 179 L 244.5 183 L 241.5 179 Z " /><path fill="rgb(28,35,41)" stroke="rgb(28,35,41)" stroke-width="1" opacity="1" d="M 181.5 181 L 180.5 183 L 181.5 181 Z " /><path fill="rgb(28,35,41)" stroke="rgb(28,35,41)" stroke-width="1" opacity="1" d="M 227.5 181 L 228.5 183 L 227.5 181 Z " /><path fill="rgb(28,35,41)" stroke="rgb(28,35,41)" stroke-width="1" opacity="1" d="M 178.5 183 L 177.5 185 L 178.5 183 Z " /><path fill="rgb(28,35,41)" stroke="rgb(28,35,41)" stroke-width="1" opacity="1" d="M 233.5 185 L 234.5 187 L 233.5 185 Z " /><path fill="rgb(28,35,41)" stroke="rgb(28,35,41)" stroke-width="1" opacity="1" d="M 247.5 185 L 250.5 189 L 247.5 185 Z " /><path fill="rgb(28,35,41)" stroke="rgb(28,35,41)" stroke-width="1" opacity="1" d="M 51.5 187 L 52 189.5 L 51 189.5 L 51.5 187 Z " /><path fill="rgb(28,35,41)" stroke="rgb(28,35,41)" stroke-width="1" opacity="1" d="M 173.5 187 L 172.5 189 L 173.5 187 Z " /><path fill="rgb(28,35,41)" stroke="rgb(28,35,41)" stroke-width="1" opacity="1" d="M 160.5 188 L 159.5 190 L 160.5 188 Z " /><path fill="rgb(28,35,41)" stroke="rgb(28,35,41)" stroke-width="1" opacity="1" d="M 238.5 189 L 240.5 192 L 238.5 189 Z " /><path fill="rgb(28,35,41)" stroke="rgb(28,35,41)" stroke-width="1" opacity="1" d="M 156.5 193 L 155.5 195 L 156.5 193 Z " /><path fill="rgb(28,35,41)" stroke="rgb(28,35,41)" stroke-width="1" opacity="1" d="M 168.5 193 L 166.5 196 L 168.5 193 Z " /><path fill="rgb(28,35,41)" stroke="rgb(28,35,41)" stroke-width="1" opacity="1" d="M 243.5 195 L 244.5 197 L 243.5 195 Z " /><path fill="rgb(28,35,41)" stroke="rgb(28,35,41)" stroke-width="1" opacity="1" d="M 164.5 198 L 163.5 200 L 164.5 198 Z " /><path fill="rgb(28,35,41)" stroke="rgb(28,35,41)" stroke-width="1" opacity="1" d="M 247.5 201 L 250 205.5 L 249 205.5 L 247.5 201 Z " /><path fill="rgb(28,35,41)" stroke="rgb(28,35,41)" stroke-width="1" opacity="1" d="M 495.5 201 L 496 203.5 L 495 203.5 L 495.5 201 Z " /><path fill="rgb(28,35,41)" stroke="rgb(28,35,41)" stroke-width="1" opacity="1" d="M 161.5 202 L 160.5 204 L 161.5 202 Z " /><path fill="rgb(28,35,41)" stroke="rgb(28,35,41)" stroke-width="1" opacity="1" d="M 159.5 205 L 158.5 207 L 159.5 205 Z " /><path fill="rgb(28,35,41)" stroke="rgb(28,35,41)" stroke-width="1" opacity="1" d="M 157.5 208 L 156.5 210 L 157.5 208 Z " /><path fill="rgb(28,35,41)" stroke="rgb(28,35,41)" stroke-width="1" opacity="1" d="M 200.5 210 L 204 210.5 L 200.5 211 L 200.5 210 Z " /><path fill="rgb(28,35,41)" stroke="rgb(28,35,41)" stroke-width="1" opacity="1" d="M 210.5 210 L 214 210.5 L 210.5 211 L 210.5 210 Z " /><path fill="rgb(28,35,41)" stroke="rgb(28,35,41)" stroke-width="1" opacity="1" d="M 152.5 216 L 151.5 218 L 152.5 216 Z " /><path fill="rgb(28,35,41)" stroke="rgb(28,35,41)" stroke-width="1" opacity="1" d="M 228.5 216 L 229.5 218 L 228.5 216 Z " /><path fill="rgb(28,35,41)" stroke="rgb(28,35,41)" stroke-width="1" opacity="1" d="M 253.5 216 L 254 218.5 L 253 218.5 L 253.5 216 Z " /><path fill="rgb(28,35,41)" stroke="rgb(28,35,41)" stroke-width="1" opacity="1" d="M 204.5 219 L 210 219.5 L 204.5 220 L 204.5 219 Z " /><path fill="rgb(28,35,41)" stroke="rgb(28,35,41)" stroke-width="1" opacity="1" d="M 179.5 220 L 178.5 222 L 179.5 220 Z " /><path fill="rgb(28,35,41)" stroke="rgb(28,35,41)" stroke-width="1" opacity="1" d="M 233.5 220 L 234.5 222 L 233.5 220 Z " /><path fill="rgb(28,35,41)" stroke="rgb(28,35,41)" stroke-width="1" opacity="1" d="M 176.5 222 L 175.5 224 L 176.5 222 Z " /><path fill="rgb(28,35,41)" stroke="rgb(28,35,41)" stroke-width="1" opacity="1" d="M 148.5 223 L 147.5 225 L 148.5 223 Z " /><path fill="rgb(28,35,41)" stroke="rgb(28,35,41)" stroke-width="1" opacity="1" d="M 223.5 224 L 224.5 226 L 223.5 224 Z " /><path fill="rgb(28,35,41)" stroke="rgb(28,35,41)" stroke-width="1" opacity="1" d="M 237.5 225 L 238.5 227 L 237.5 225 Z " /><path fill="rgb(28,35,41)" stroke="rgb(28,35,41)" stroke-width="1" opacity="1" d="M 169.5 227 L 168.5 229 L 169.5 227 Z " /><path fill="rgb(28,35,41)" stroke="rgb(28,35,41)" stroke-width="1" opacity="1" d="M 184.5 228 L 183.5 230 L 184.5 228 Z " /><path fill="rgb(28,35,41)" stroke="rgb(28,35,41)" stroke-width="1" opacity="1" d="M 166.5 229 L 165.5 231 L 166.5 229 Z " /><path fill="rgb(28,35,41)" stroke="rgb(28,35,41)" stroke-width="1" opacity="1" d="M 181.5 230 L 180.5 232 L 181.5 230 Z " /><path fill="rgb(28,35,41)" stroke="rgb(28,35,41)" stroke-width="1" opacity="1" d="M 229.5 230 L 230.5 232 L 229.5 230 Z " /><path fill="rgb(28,35,41)" stroke="rgb(28,35,41)" stroke-width="1" opacity="1" d="M 265.5 230 L 268 230.5 L 265.5 231 L 265.5 230 Z " /><path fill="rgb(28,35,41)" stroke="rgb(28,35,41)" stroke-width="1" opacity="1" d="M 275.5 231 L 278 231.5 L 275.5 232 L 275.5 231 Z " /><path fill="rgb(28,35,41)" stroke="rgb(28,35,41)" stroke-width="1" opacity="1" d="M 253.5 232 L 254 234.5 L 253 234.5 L 253.5 232 Z " /><path fill="rgb(28,35,41)" stroke="rgb(28,35,41)" stroke-width="1" opacity="1" d="M 285.5 232 L 289 232.5 L 285.5 233 L 285.5 232 Z " /><path fill="rgb(28,35,41)" stroke="rgb(28,35,41)" stroke-width="1" opacity="1" d="M 297.5 233 L 301 233.5 L 297.5 234 L 297.5 233 Z " /><path fill="rgb(28,35,41)" stroke="rgb(28,35,41)" stroke-width="1" opacity="1" d="M 310.5 234 L 315 234.5 L 310.5 235 L 310.5 234 Z " /><path fill="rgb(28,35,41)" stroke="rgb(28,35,41)" stroke-width="1" opacity="1" d="M 475.5 234 L 480 234.5 L 475.5 235 L 475.5 234 Z " /><path fill="rgb(28,35,41)" stroke="rgb(28,35,41)" stroke-width="1" opacity="1" d="M 326.5 235 L 331 235.5 L 326.5 236 L 326.5 235 Z " /><path fill="rgb(28,35,41)" stroke="rgb(28,35,41)" stroke-width="1" opacity="1" d="M 458.5 235 L 464 235.5 L 458.5 236 L 458.5 235 Z " /><path fill="rgb(28,35,41)" stroke="rgb(28,35,41)" stroke-width="1" opacity="1" d="M 346.5 236 L 355 236.5 L 346.5 237 L 346.5 236 Z " /><path fill="rgb(28,35,41)" stroke="rgb(28,35,41)" stroke-width="1" opacity="1" d="M 435.5 236 L 444 236.5 L 435.5 237 L 435.5 236 Z " /><path fill="rgb(28,35,41)" stroke="rgb(28,35,41)" stroke-width="1" opacity="1" d="M 171.5 237 L 170.5 239 L 171.5 237 Z " /><path fill="rgb(28,35,41)" stroke="rgb(28,35,41)" stroke-width="1" opacity="1" d="M 389.5 237 L 398 237.5 L 389.5 238 L 389.5 237 Z " /><path fill="rgb(28,35,41)" stroke="rgb(28,35,41)" stroke-width="1" opacity="1" d="M 261 239 L 264 239.5 L 261.5 241 L 261 239 Z " /><path fill="rgb(28,35,41)" stroke="rgb(28,35,41)" stroke-width="1" opacity="1" d="M 269.5 240 L 274 240.5 L 269.5 241 L 269.5 240 Z " /><path fill="rgb(28,35,41)" stroke="rgb(28,35,41)" stroke-width="1" opacity="1" d="M 87.5 241 L 92 241.5 L 87.5 242 L 87.5 241 Z " /><path fill="rgb(28,35,41)" stroke="rgb(28,35,41)" stroke-width="1" opacity="1" d="M 244.5 241 L 245 243.5 L 244 243.5 L 244.5 241 Z " /><path fill="rgb(28,35,41)" stroke="rgb(28,35,41)" stroke-width="1" opacity="1" d="M 280.5 241 L 285 241.5 L 280.5 242 L 280.5 241 Z " /><path fill="rgb(28,35,41)" stroke="rgb(28,35,41)" stroke-width="1" opacity="1" d="M 100.5 242 L 104 242.5 L 100.5 243 L 100.5 242 Z " /><path fill="rgb(28,35,41)" stroke="rgb(28,35,41)" stroke-width="1" opacity="1" d="M 157.5 242 L 159.5 245 L 157.5 242 Z " /><path fill="rgb(28,35,41)" stroke="rgb(28,35,41)" stroke-width="1" opacity="1" d="M 291.5 242 L 297 242.5 L 291.5 243 L 291.5 242 Z " /><path fill="rgb(28,35,41)" stroke="rgb(28,35,41)" stroke-width="1" opacity="1" d="M 120.5 243 L 119.5 245 L 120.5 243 Z " /><path fill="rgb(28,35,41)" stroke="rgb(28,35,41)" stroke-width="1" opacity="1" d="M 303.5 243 L 310 243.5 L 303.5 244 L 303.5 243 Z " /><path fill="rgb(28,35,41)" stroke="rgb(28,35,41)" stroke-width="1" opacity="1" d="M 481.5 243 Q 484.8 241.9 484 244.5 L 482.5 244 L 481.5 243 Z " /><path fill="rgb(28,35,41)" stroke="rgb(28,35,41)" stroke-width="1" opacity="1" d="M 235.5 244 L 236 250.5 L 235 250.5 L 235.5 244 Z " /><path fill="rgb(28,35,41)" stroke="rgb(28,35,41)" stroke-width="1" opacity="1" d="M 317.5 244 L 326 244.5 L 317.5 245 L 317.5 244 Z " /><path fill="rgb(28,35,41)" stroke="rgb(28,35,41)" stroke-width="1" opacity="1" d="M 465.5 244 L 473 244.5 L 465.5 245 L 465.5 244 Z " /><path fill="rgb(28,35,41)" stroke="rgb(28,35,41)" stroke-width="1" opacity="1" d="M 336.5 245 L 346 245.5 L 336.5 246 L 336.5 245 Z " /><path fill="rgb(28,35,41)" stroke="rgb(28,35,41)" stroke-width="1" opacity="1" d="M 444.5 245 L 455 245.5 L 444.5 246 L 444.5 245 Z " /><path fill="rgb(28,35,41)" stroke="rgb(28,35,41)" stroke-width="1" opacity="1" d="M 362.5 246 L 429 246.5 L 362.5 247 L 362.5 246 Z " /><path fill="rgb(28,35,41)" stroke="rgb(28,35,41)" stroke-width="1" opacity="1" d="M 482.5 246 L 481.5 248 L 482.5 246 Z " /><path fill="rgb(28,35,41)" stroke="rgb(28,35,41)" stroke-width="1" opacity="1" d="M 61.5 250 L 88 250.5 L 61.5 251 L 61.5 250 Z " /><path fill="rgb(28,35,41)" stroke="rgb(28,35,41)" stroke-width="1" opacity="1" d="M 53.5 251 L 56 251.5 L 53.5 252 L 53.5 251 Z " /><path fill="rgb(28,35,41)" stroke="rgb(28,35,41)" stroke-width="1" opacity="1" d="M 95.5 251 L 100 251.5 L 95.5 252 L 95.5 251 Z " /><path fill="rgb(28,35,41)" stroke="rgb(28,35,41)" stroke-width="1" opacity="1" d="M 244.5 251 L 247 251.5 L 244 253.5 L 244.5 251 Z " /><path fill="rgb(28,35,41)" stroke="rgb(28,35,41)" stroke-width="1" opacity="1" d="M 477.5 255 L 476.5 257 L 477.5 255 Z " /><path fill="rgb(28,35,41)" stroke="rgb(28,35,41)" stroke-width="1" opacity="1" d="M 39.5 256 L 38.5 258 L 39.5 256 Z " /><path fill="rgb(28,35,41)" stroke="rgb(28,35,41)" stroke-width="1" opacity="1" d="M 254.5 256 L 253.5 258 L 254.5 256 Z " /><path fill="rgb(28,35,41)" stroke="rgb(28,35,41)" stroke-width="1" opacity="1" d="M 36.5 258 L 35.5 260 L 36.5 258 Z " /><path fill="rgb(28,35,41)" stroke="rgb(28,35,41)" stroke-width="1" opacity="1" d="M 475.5 258 L 474.5 260 L 475.5 258 Z " /><path fill="rgb(28,35,41)" stroke="rgb(28,35,41)" stroke-width="1" opacity="1" d="M 252.5 259 L 251.5 261 L 252.5 259 Z " /><path fill="rgb(28,35,41)" stroke="rgb(28,35,41)" stroke-width="1" opacity="1" d="M 32.5 261 L 27.5 267 L 32.5 261 Z " /><path fill="rgb(28,35,41)" stroke="rgb(28,35,41)" stroke-width="1" opacity="1" d="M 473.5 261 L 472.5 263 L 473.5 261 Z " /><path fill="rgb(28,35,41)" stroke="rgb(28,35,41)" stroke-width="1" opacity="1" d="M 107.5 262 L 108 264.5 L 107 264.5 L 107.5 262 Z " /><path fill="rgb(28,35,41)" stroke="rgb(28,35,41)" stroke-width="1" opacity="1" d="M 249.5 263 L 242.5 271 L 249.5 263 Z " /><path fill="rgb(28,35,41)" stroke="rgb(28,35,41)" stroke-width="1" opacity="1" d="M 229.5 265 L 225.5 270 L 229.5 265 Z " /><path fill="rgb(28,35,41)" stroke="rgb(28,35,41)" stroke-width="1" opacity="1" d="M 470.5 265 L 469.5 267 L 470.5 265 Z " /><path fill="rgb(28,35,41)" stroke="rgb(28,35,41)" stroke-width="1" opacity="1" d="M 25.5 269 L 24.5 271 L 25.5 269 Z " /><path fill="rgb(28,35,41)" stroke="rgb(28,35,41)" stroke-width="1" opacity="1" d="M 467.5 269 L 463.5 274 L 467.5 269 Z " /><path fill="rgb(28,35,41)" stroke="rgb(28,35,41)" stroke-width="1" opacity="1" d="M 169.5 271 L 172 272.5 L 170.5 273 L 169.5 271 Z " /><path fill="rgb(28,35,41)" stroke="rgb(28,35,41)" stroke-width="1" opacity="1" d="M 23.5 272 L 22.5 274 L 23.5 272 Z " /><path fill="rgb(28,35,41)" stroke="rgb(28,35,41)" stroke-width="1" opacity="1" d="M 239.5 272 L 238.5 274 L 239.5 272 Z " /><path fill="rgb(28,35,41)" stroke="rgb(28,35,41)" stroke-width="1" opacity="1" d="M 157.5 273 L 152.5 279 L 157.5 273 Z " /><path fill="rgb(28,35,41)" stroke="rgb(28,35,41)" stroke-width="1" opacity="1" d="M 180.5 273 L 186 273.5 L 180.5 274 L 180.5 273 Z " /><path fill="rgb(28,35,41)" stroke="rgb(28,35,41)" stroke-width="1" opacity="1" d="M 206.5 273 L 210 273.5 L 206.5 274 L 206.5 273 Z " /><path fill="rgb(28,35,41)" stroke="rgb(28,35,41)" stroke-width="1" opacity="1" d="M 111.5 278 L 114.5 282 L 111.5 278 Z " /><path fill="rgb(28,35,41)" stroke="rgb(28,35,41)" stroke-width="1" opacity="1" d="M 458.5 279 L 455.5 283 L 458.5 279 Z " /><path fill="rgb(28,35,41)" stroke="rgb(28,35,41)" stroke-width="1" opacity="1" d="M 62.5 281 L 61.5 283 L 62.5 281 Z " /><path fill="rgb(28,35,41)" stroke="rgb(28,35,41)" stroke-width="1" opacity="1" d="M 163.5 281 L 168 281.5 L 164.5 283 L 163.5 281 Z " /><path fill="rgb(28,35,41)" stroke="rgb(28,35,41)" stroke-width="1" opacity="1" d="M 231.5 281 L 232.5 283 L 231.5 281 Z " /><path fill="rgb(28,35,41)" stroke="rgb(28,35,41)" stroke-width="1" opacity="1" d="M 173.5 282 L 178 282.5 L 173.5 283 L 173.5 282 Z " /><path fill="rgb(28,35,41)" stroke="rgb(28,35,41)" stroke-width="1" opacity="1" d="M 220.5 282 L 222.5 285 L 220.5 282 Z " /><path fill="rgb(28,35,41)" stroke="rgb(28,35,41)" stroke-width="1" opacity="1" d="M 59.5 283 L 57.5 286 L 59.5 283 Z " /><path fill="rgb(28,35,41)" stroke="rgb(28,35,41)" stroke-width="1" opacity="1" d="M 103.5 283 L 108.5 289 L 103.5 283 Z " /><path fill="rgb(28,35,41)" stroke="rgb(28,35,41)" stroke-width="1" opacity="1" d="M 183.5 283 L 191 283.5 L 183.5 284 L 183.5 283 Z " /><path fill="rgb(28,35,41)" stroke="rgb(28,35,41)" stroke-width="1" opacity="1" d="M 213.5 283 L 218 283.5 L 213.5 284 L 213.5 283 Z " /><path fill="rgb(28,35,41)" stroke="rgb(28,35,41)" stroke-width="1" opacity="1" d="M 167.5 284 L 169.5 287 L 167.5 284 Z " /><path fill="rgb(28,35,41)" stroke="rgb(28,35,41)" stroke-width="1" opacity="1" d="M 233.5 284 L 234.5 286 L 233.5 284 Z " /><path fill="rgb(28,35,41)" stroke="rgb(28,35,41)" stroke-width="1" opacity="1" d="M 127.5 286 L 133 286.5 L 127.5 287 L 127.5 286 Z " /><path fill="rgb(28,35,41)" stroke="rgb(28,35,41)" stroke-width="1" opacity="1" d="M 223.5 286 L 224.5 288 L 223.5 286 Z " /><path fill="rgb(28,35,41)" stroke="rgb(28,35,41)" stroke-width="1" opacity="1" d="M 235.5 287 L 236.5 289 L 235.5 287 Z " /><path fill="rgb(28,35,41)" stroke="rgb(28,35,41)" stroke-width="1" opacity="1" d="M 54.5 288 L 51.5 292 L 54.5 288 Z " /><path fill="rgb(28,35,41)" stroke="rgb(28,35,41)" stroke-width="1" opacity="1" d="M 16.5 289 L 17 291.5 L 16 291.5 L 16.5 289 Z " /><path fill="rgb(28,35,41)" stroke="rgb(28,35,41)" stroke-width="1" opacity="1" d="M 158.5 289 L 159.5 291 L 158.5 289 Z " /><path fill="rgb(28,35,41)" stroke="rgb(28,35,41)" stroke-width="1" opacity="1" d="M 173.5 289 L 176.5 293 L 173.5 289 Z " /><path fill="rgb(28,35,41)" stroke="rgb(28,35,41)" stroke-width="1" opacity="1" d="M 225.5 289 L 226.5 291 L 225.5 289 Z " /><path fill="rgb(28,35,41)" stroke="rgb(28,35,41)" stroke-width="1" opacity="1" d="M 64.5 291 L 60.5 296 L 64.5 291 Z " /><path fill="rgb(28,35,41)" stroke="rgb(28,35,41)" stroke-width="1" opacity="1" d="M 162.5 292 L 164.5 295 L 162.5 292 Z " /><path fill="rgb(28,35,41)" stroke="rgb(28,35,41)" stroke-width="1" opacity="1" d="M 227.5 292 L 228.5 294 L 227.5 292 Z " /><path fill="rgb(28,35,41)" stroke="rgb(28,35,41)" stroke-width="1" opacity="1" d="M 238.5 292 L 239.5 294 L 238.5 292 Z " /><path fill="rgb(28,35,41)" stroke="rgb(28,35,41)" stroke-width="1" opacity="1" d="M 442.5 294 L 439.5 298 L 442.5 294 Z " /><path fill="rgb(28,35,41)" stroke="rgb(28,35,41)" stroke-width="1" opacity="1" d="M 135.5 295 Q 138.8 296.8 137 303.5 L 136 303.5 L 135.5 296 L 134 296.5 L 135.5 295 Z " /><path fill="rgb(28,35,41)" stroke="rgb(28,35,41)" stroke-width="1" opacity="1" d="M 180.5 297 L 182.5 300 L 180.5 297 Z " /><path fill="rgb(28,35,41)" stroke="rgb(28,35,41)" stroke-width="1" opacity="1" d="M 230.5 297 L 231.5 299 L 230.5 297 Z " /><path fill="rgb(28,35,41)" stroke="rgb(28,35,41)" stroke-width="1" opacity="1" d="M 248.5 300 L 255 300.5 L 248.5 301 L 248.5 300 Z " /><path fill="rgb(28,35,41)" stroke="rgb(28,35,41)" stroke-width="1" opacity="1" d="M 183.5 301 L 184.5 303 L 183.5 301 Z " /><path fill="rgb(28,35,41)" stroke="rgb(28,35,41)" stroke-width="1" opacity="1" d="M 263.5 301 L 272 301.5 L 263.5 302 L 263.5 301 Z " /><path fill="rgb(28,35,41)" stroke="rgb(28,35,41)" stroke-width="1" opacity="1" d="M 172.5 302 L 174.5 305 L 172.5 302 Z " /><path fill="rgb(28,35,41)" stroke="rgb(28,35,41)" stroke-width="1" opacity="1" d="M 282.5 302 L 292 302.5 L 282.5 303 L 282.5 302 Z " /><path fill="rgb(28,35,41)" stroke="rgb(28,35,41)" stroke-width="1" opacity="1" d="M 419.5 302 L 430 302.5 L 419.5 303 L 419.5 302 Z " /><path fill="rgb(28,35,41)" stroke="rgb(28,35,41)" stroke-width="1" opacity="1" d="M 308.5 303 L 327 303.5 L 308.5 304 L 308.5 303 Z " /><path fill="rgb(28,35,41)" stroke="rgb(28,35,41)" stroke-width="1" opacity="1" d="M 388.5 303 L 405 303.5 L 388.5 304 L 388.5 303 Z " /><path fill="rgb(28,35,41)" stroke="rgb(28,35,41)" stroke-width="1" opacity="1" d="M 130.5 304 L 129.5 306 L 130.5 304 Z " /><path fill="rgb(28,35,41)" stroke="rgb(28,35,41)" stroke-width="1" opacity="1" d="M 16.5 305 L 17 308.5 L 16 308.5 L 16.5 305 Z " /><path fill="rgb(28,35,41)" stroke="rgb(28,35,41)" stroke-width="1" opacity="1" d="M 146.5 305 L 147 307.5 L 146 307.5 L 146.5 305 Z " /><path fill="rgb(28,35,41)" stroke="rgb(28,35,41)" stroke-width="1" opacity="1" d="M 187.5 307 L 188.5 309 L 187.5 307 Z " /><path fill="rgb(28,35,41)" stroke="rgb(28,35,41)" stroke-width="1" opacity="1" d="M 137.5 308 L 138 310.5 L 137 310.5 L 137.5 308 Z " /><path fill="rgb(28,35,41)" stroke="rgb(28,35,41)" stroke-width="1" opacity="1" d="M 44.5 309 L 45 317.5 L 44 317.5 L 44.5 309 Z " /><path fill="rgb(28,35,41)" stroke="rgb(28,35,41)" stroke-width="1" opacity="1" d="M 116.5 309 L 115.5 311 L 116.5 309 Z " /><path fill="rgb(28,35,41)" stroke="rgb(28,35,41)" stroke-width="1" opacity="1" d="M 212.5 309 L 214 309.5 L 211.5 311 L 212.5 309 Z " /><path fill="rgb(28,35,41)" stroke="rgb(28,35,41)" stroke-width="1" opacity="1" d="M 216.5 309 L 219 310.5 L 217.5 310 L 216.5 309 Z " /><path fill="rgb(28,35,41)" stroke="rgb(28,35,41)" stroke-width="1" opacity="1" d="M 247 309 L 249 309.5 L 247 310.5 L 247 309 Z " /><path fill="rgb(28,35,41)" stroke="rgb(28,35,41)" stroke-width="1" opacity="1" d="M 259.5 310 L 264 310.5 L 259.5 311 L 259.5 310 Z " /><path fill="rgb(28,35,41)" stroke="rgb(28,35,41)" stroke-width="1" opacity="1" d="M 220.5 311 L 221.5 313 L 220.5 311 Z " /><path fill="rgb(28,35,41)" stroke="rgb(28,35,41)" stroke-width="1" opacity="1" d="M 277.5 311 L 283 311.5 L 277.5 312 L 277.5 311 Z " /><path fill="rgb(28,35,41)" stroke="rgb(28,35,41)" stroke-width="1" opacity="1" d="M 299.5 312 L 307 312.5 L 299.5 313 L 299.5 312 Z " /><path fill="rgb(28,35,41)" stroke="rgb(28,35,41)" stroke-width="1" opacity="1" d="M 405.5 312 L 414 312.5 L 405.5 313 L 405.5 312 Z " /><path fill="rgb(28,35,41)" stroke="rgb(28,35,41)" stroke-width="1" opacity="1" d="M 125.5 313 L 124.5 315 L 125.5 313 Z " /><path fill="rgb(28,35,41)" stroke="rgb(28,35,41)" stroke-width="1" opacity="1" d="M 335.5 313 L 372 313.5 L 335.5 314 L 335.5 313 Z " /><path fill="rgb(28,35,41)" stroke="rgb(28,35,41)" stroke-width="1" opacity="1" d="M 424.5 313 L 293.5 445 L 424.5 313 Z " /><path fill="rgb(28,35,41)" stroke="rgb(28,35,41)" stroke-width="1" opacity="1" d="M 224.5 314 L 225.5 316 L 224.5 314 Z " /><path fill="rgb(28,35,41)" stroke="rgb(28,35,41)" stroke-width="1" opacity="1" d="M 228.5 317 L 231.5 321 L 228.5 317 Z " /><path fill="rgb(28,35,41)" stroke="rgb(28,35,41)" stroke-width="1" opacity="1" d="M 122.5 318 L 121.5 320 L 122.5 318 Z " /><path fill="rgb(28,35,41)" stroke="rgb(28,35,41)" stroke-width="1" opacity="1" d="M 219.5 322 L 220.5 324 L 219.5 322 Z " /><path fill="rgb(28,35,41)" stroke="rgb(28,35,41)" stroke-width="1" opacity="1" d="M 119.5 323 L 118.5 325 L 119.5 323 Z " /><path fill="rgb(28,35,41)" stroke="rgb(28,35,41)" stroke-width="1" opacity="1" d="M 106.5 324 L 105.5 326 L 106.5 324 Z " /><path fill="rgb(28,35,41)" stroke="rgb(28,35,41)" stroke-width="1" opacity="1" d="M 23.5 325 L 24.5 327 L 23.5 325 Z " /><path fill="rgb(28,35,41)" stroke="rgb(28,35,41)" stroke-width="1" opacity="1" d="M 117.5 326 L 116.5 328 L 117.5 326 Z " /><path fill="rgb(28,35,41)" stroke="rgb(28,35,41)" stroke-width="1" opacity="1" d="M 224.5 326 L 227.5 330 L 224.5 326 Z " /><path fill="rgb(28,35,41)" stroke="rgb(28,35,41)" stroke-width="1" opacity="1" d="M 25.5 328 L 27.5 331 L 25.5 328 Z " /><path fill="rgb(28,35,41)" stroke="rgb(28,35,41)" stroke-width="1" opacity="1" d="M 58.5 329 L 59.5 331 L 58.5 329 Z " /><path fill="rgb(28,35,41)" stroke="rgb(28,35,41)" stroke-width="1" opacity="1" d="M 102.5 329 L 101.5 331 L 102.5 329 Z " /><path fill="rgb(28,35,41)" stroke="rgb(28,35,41)" stroke-width="1" opacity="1" d="M 115.5 329 L 114.5 331 L 115.5 329 Z " /><path fill="rgb(28,35,41)" stroke="rgb(28,35,41)" stroke-width="1" opacity="1" d="M 244.5 330 L 245 331.5 L 244.5 334 Q 241.8 332.8 244 331.5 L 244.5 330 Z " /><path fill="rgb(28,35,41)" stroke="rgb(28,35,41)" stroke-width="1" opacity="1" d="M 113.5 332 L 112.5 334 L 113.5 332 Z " /><path fill="rgb(28,35,41)" stroke="rgb(28,35,41)" stroke-width="1" opacity="1" d="M 202.5 332 L 201.5 334 L 202.5 332 Z " /><path fill="rgb(28,35,41)" stroke="rgb(28,35,41)" stroke-width="1" opacity="1" d="M 50.5 334 L 51.5 336 L 50.5 334 Z " /><path fill="rgb(28,35,41)" stroke="rgb(28,35,41)" stroke-width="1" opacity="1" d="M 200.5 335 L 199.5 337 L 198 336.5 L 200.5 335 Z " /><path fill="rgb(28,35,41)" stroke="rgb(28,35,41)" stroke-width="1" opacity="1" d="M 33.5 336 L 35.5 339 L 33.5 336 Z " /><path fill="rgb(28,35,41)" stroke="rgb(28,35,41)" stroke-width="1" opacity="1" d="M 65.5 336 L 66.5 338 L 65.5 336 Z " /><path fill="rgb(28,35,41)" stroke="rgb(28,35,41)" stroke-width="1" opacity="1" d="M 110.5 336 L 109.5 338 L 110.5 336 Z " /><path fill="rgb(28,35,41)" stroke="rgb(28,35,41)" stroke-width="1" opacity="1" d="M 235.5 337 L 238.5 341 L 235.5 337 Z " /><path fill="rgb(28,35,41)" stroke="rgb(28,35,41)" stroke-width="1" opacity="1" d="M 53.5 338 L 57.5 343 L 53.5 338 Z " /><path fill="rgb(28,35,41)" stroke="rgb(28,35,41)" stroke-width="1" opacity="1" d="M 37.5 339 L 38.5 341 L 37.5 339 Z " /><path fill="rgb(28,35,41)" stroke="rgb(28,35,41)" stroke-width="1" opacity="1" d="M 92.5 339 L 91.5 341 L 92.5 339 Z " /><path fill="rgb(28,35,41)" stroke="rgb(28,35,41)" stroke-width="1" opacity="1" d="M 148.5 339 L 149.5 341 L 148.5 339 Z " /><path fill="rgb(28,35,41)" stroke="rgb(28,35,41)" stroke-width="1" opacity="1" d="M 160.5 340 L 162.5 343 L 160.5 340 Z " /><path fill="rgb(28,35,41)" stroke="rgb(28,35,41)" stroke-width="1" opacity="1" d="M 189.5 340 L 190 342.5 L 189 342.5 L 189.5 340 Z " /><path fill="rgb(28,35,41)" stroke="rgb(28,35,41)" stroke-width="1" opacity="1" d="M 106.5 341 L 105.5 343 L 106.5 341 Z " /><path fill="rgb(28,35,41)" stroke="rgb(28,35,41)" stroke-width="1" opacity="1" d="M 150.5 342 L 151.5 344 L 150.5 342 Z " /><path fill="rgb(28,35,41)" stroke="rgb(28,35,41)" stroke-width="1" opacity="1" d="M 60.5 344 L 61.5 346 L 60.5 344 Z " /><path fill="rgb(28,35,41)" stroke="rgb(28,35,41)" stroke-width="1" opacity="1" d="M 241.5 344 L 242.5 346 L 241.5 344 Z " /><path fill="rgb(28,35,41)" stroke="rgb(28,35,41)" stroke-width="1" opacity="1" d="M 152.5 345 L 154.5 348 L 152.5 345 Z " /><path fill="rgb(28,35,41)" stroke="rgb(28,35,41)" stroke-width="1" opacity="1" d="M 204.5 345 L 198.5 352 L 204.5 345 Z " /><path fill="rgb(28,35,41)" stroke="rgb(28,35,41)" stroke-width="1" opacity="1" d="M 56.5 347 L 59 347.5 L 56.5 348 L 56.5 347 Z " /><path fill="rgb(28,35,41)" stroke="rgb(28,35,41)" stroke-width="1" opacity="1" d="M 244.5 348 L 245.5 350 L 244.5 348 Z " /><path fill="rgb(28,35,41)" stroke="rgb(28,35,41)" stroke-width="1" opacity="1" d="M 156.5 350 L 162 357 L 151 356.5 L 161 355.5 L 156.5 350 Z " /><path fill="rgb(28,35,41)" stroke="rgb(28,35,41)" stroke-width="1" opacity="1" d="M 172.5 352 L 173.5 354 L 172.5 352 Z " /><path fill="rgb(28,35,41)" stroke="rgb(28,35,41)" stroke-width="1" opacity="1" d="M 145.5 355 L 148 355.5 L 145.5 356 L 145.5 355 Z " /><path fill="rgb(28,35,41)" stroke="rgb(28,35,41)" stroke-width="1" opacity="1" d="M 176.5 355 L 177.5 357 L 176.5 355 Z " /><path fill="rgb(28,35,41)" stroke="rgb(28,35,41)" stroke-width="1" opacity="1" d="M 249.5 355 L 250.5 357 L 249.5 355 Z " /><path fill="rgb(28,35,41)" stroke="rgb(28,35,41)" stroke-width="1" opacity="1" d="M 252.5 357 L 255 357.5 L 252.5 358 L 252.5 357 Z " /><path fill="rgb(28,35,41)" stroke="rgb(28,35,41)" stroke-width="1" opacity="1" d="M 178.5 358 L 179 360.5 L 178 360.5 L 178.5 358 Z " /><path fill="rgb(28,35,41)" stroke="rgb(28,35,41)" stroke-width="1" opacity="1" d="M 175.5 365 L 255.5 446 L 175.5 365 Z " /><path fill="rgb(28,35,41)" stroke="rgb(28,35,41)" stroke-width="1" opacity="1" d="M 115.5 368 L 116.5 370 L 115.5 368 Z " /><path fill="rgb(28,35,41)" stroke="rgb(28,35,41)" stroke-width="1" opacity="1" d="M 129.5 369 L 130 373.5 L 129 373.5 L 129.5 369 Z " /><path fill="rgb(28,35,41)" stroke="rgb(28,35,41)" stroke-width="1" opacity="1" d="M 118.5 373 L 119.5 375 L 118.5 373 Z " /><path fill="rgb(28,35,41)" stroke="rgb(28,35,41)" stroke-width="1" opacity="1" d="M 130.5 378 L 131 380.5 L 130 380.5 L 130.5 378 Z " /><path fill="rgb(28,35,41)" stroke="rgb(28,35,41)" stroke-width="1" opacity="1" d="M 122.5 379 L 123.5 381 L 122.5 379 Z " /><path fill="rgb(28,35,41)" stroke="rgb(28,35,41)" stroke-width="1" opacity="1" d="M 124.5 382 L 125.5 384 L 124.5 382 Z " /><path fill="rgb(28,35,41)" stroke="rgb(28,35,41)" stroke-width="1" opacity="1" d="M 127.5 386 L 129.5 389 L 127.5 386 Z " /><path fill="rgb(0,0,0)" stroke="rgb(0,0,0)" stroke-width="1" opacity="0.9921568627450981" d="M 163.5 51 L 196.5 51 L 216.5 55 L 242.5 65 Q 260.1 74.4 274.5 87 Q 296.8 64.8 331.5 55 L 351.5 51 L 383.5 51 L 404.5 55 L 432.5 66 Q 456.2 78.8 473 98.5 Q 491.7 119.8 501 150.5 L 506 178.5 L 506 198.5 L 505 199.5 L 505 207.5 L 503 218.5 L 498 235.5 Q 491.8 252.8 482 266.5 L 469 282.5 L 409.5 342 L 318 432.5 L 298.5 453 Q 291.9 458.9 281.5 461 L 265.5 461 L 249.5 453 L 162.5 366 L 148.5 366 L 139 364 L 141 385.5 L 149 408.5 L 149 412.5 Q 148 416 142.5 415 L 123 396.5 Q 105.4 376.7 97 349 Q 84.1 358.2 60.5 358 L 43.5 354 Q 30.6 348.9 22 339.5 Q 5.7 324.3 6 292.5 Q 10.3 266.3 27.5 253 Q 37.2 244.2 53 241.5 L 48 229.5 L 44 213.5 L 43 199.5 L 42 198.5 L 42 178.5 L 43 177.5 L 44 163.5 L 49 143.5 L 60 119.5 Q 72.7 97.7 91.5 82 Q 105.6 70.1 123.5 62 L 139.5 56 L 163.5 51 Z M 168 60 L 167 61 L 160 61 L 150 63 L 134 68 Q 112 76 97 90 Q 74 109 61 139 L 54 161 L 53 172 L 52 173 L 52 187 L 51 188 L 54 216 L 62 240 L 64 241 L 87 241 L 88 242 L 100 242 L 101 243 L 108 243 Q 117 230 136 228 Q 146 206 161 188 Q 172 171 196 167 L 214 167 L 219 168 Q 235 173 246 183 Q 254 191 259 203 L 263 218 L 263 230 L 266 231 L 297 233 L 298 234 L 310 234 L 311 235 L 346 236 L 347 237 L 389 237 L 390 238 L 398 238 L 399 237 L 444 237 L 445 236 L 464 236 L 465 235 L 488 234 L 492 224 L 496 204 L 496 174 L 492 154 Q 483 124 465 104 Q 450 86 430 75 L 406 65 L 381 60 L 356 60 L 355 61 L 343 62 L 325 67 Q 295 78 275 99 L 272 98 Q 261 86 247 78 L 224 67 L 206 62 L 194 61 L 193 60 L 168 60 Z M 196 176 Q 182 179 174 187 Q 157 205 146 228 Q 154 229 160 233 L 163 233 L 189 215 L 205 210 Q 222 210 231 218 L 241 231 L 245 245 Q 247 250 244 252 L 245 254 Q 251 246 254 235 Q 256 221 253 213 Q 249 200 241 192 Q 233 182 221 178 Q 211 174 196 176 Z M 205 219 L 195 222 L 168 241 L 173 252 L 173 262 L 169 272 L 171 273 L 180 273 L 181 274 L 210 274 L 211 273 L 222 272 L 226 270 Q 234 263 236 251 Q 237 238 231 232 Q 224 219 205 219 Z M 134 237 L 121 243 Q 111 250 107 263 Q 106 273 111 279 L 118 284 L 128 287 L 139 286 L 153 279 Q 161 273 164 262 Q 166 250 160 245 Q 155 239 148 237 L 134 237 Z M 261 239 L 260 246 L 251 262 Q 243 272 230 279 L 242 300 L 249 301 L 263 301 L 264 302 L 282 302 L 283 303 L 308 303 L 309 304 L 405 304 L 406 303 L 430 303 Q 431 301 436 302 L 456 283 Q 474 266 484 243 L 481 244 L 445 245 L 444 246 L 347 246 L 346 245 L 327 245 L 326 244 L 311 244 L 310 243 L 286 242 L 285 241 L 275 241 L 274 240 Q 265 241 261 239 Z M 62 250 L 46 253 L 33 261 Q 20 271 16 290 L 16 309 Q 19 320 25 329 Q 36 343 57 348 L 66 348 L 60 344 Q 49 336 45 321 Q 44 310 46 303 Q 49 293 55 288 L 72 277 L 97 268 L 98 267 L 101 253 L 100 251 L 89 251 L 88 250 L 62 250 Z M 100 276 L 74 286 L 65 291 Q 57 297 54 308 Q 52 322 58 330 Q 64 339 77 342 L 92 341 Q 113 322 124 295 L 111 290 Q 103 285 100 276 Z M 164 281 Q 165 285 171 287 Q 191 304 198 334 Q 196 338 200 337 Q 208 327 211 312 L 215 309 Q 225 313 233 321 L 243 333 L 245 334 Q 238 302 221 282 L 213 284 L 192 284 L 191 283 L 179 283 L 178 282 L 164 281 Z M 155 288 L 146 292 L 146 308 L 148 317 L 160 341 L 178 358 L 178 362 L 175 366 L 256 446 L 269 452 L 280 452 L 294 445 L 425 314 L 425 312 L 406 312 L 405 313 L 308 313 L 307 312 L 284 312 L 283 311 L 250 310 L 247 309 L 256 338 L 258 355 Q 257 358 252 357 L 239 341 L 225 326 L 220 322 L 217 322 L 216 327 L 207 343 L 197 353 L 193 353 L 190 350 L 189 335 L 185 322 L 175 305 Q 168 293 155 288 Z M 136 295 L 120 323 L 105 343 Q 113 373 132 393 L 133 393 L 130 378 L 130 370 L 129 369 L 129 356 L 130 353 L 133 352 L 146 356 L 162 357 L 148 339 L 142 327 L 138 314 L 137 297 L 136 295 Z " /></svg>